<?xml version="1.0" standalone="no"?>
<!DOCTYPE svg PUBLIC "-//W3C//DTD SVG 20010904//EN"
 "http://www.w3.org/TR/2001/REC-SVG-20010904/DTD/svg10.dtd">
<svg version="1.0" xmlns="http://www.w3.org/2000/svg"
 width="216.000000pt" height="233.000000pt" viewBox="0 0 216.000000 233.000000"
 preserveAspectRatio="xMidYMid meet">

<g transform="translate(0.000000,233.000000) scale(0.100000,-0.100000)"
fill="#000000" stroke="none">
<path d="M1800 2260 c-50 -9 -95 -35 -118 -67 -39 -56 -48 -141 -21 -195 7
-14 -12 -34 -103 -106 l-112 -90 -28 21 c-58 43 -186 33 -227 -17 -8 -9 -21
-16 -30 -16 -28 1 -186 106 -182 121 11 35 3 107 -16 144 -41 78 -125 113
-217 90 -90 -23 -144 -108 -132 -209 l6 -53 -96 -62 -95 -63 -41 29 c-36 24
-51 28 -109 28 -60 0 -71 -3 -106 -31 -56 -46 -78 -89 -78 -155 0 -44 6 -65
28 -97 44 -67 126 -100 203 -81 102 26 169 143 134 234 -9 25 -6 28 91 91
l100 66 41 -28 c35 -25 51 -29 109 -29 61 0 71 3 107 33 l41 32 92 -54 92 -54
1 -75 c1 -68 4 -79 32 -114 39 -49 87 -73 147 -73 60 0 117 28 154 77 24 31
28 46 28 97 0 34 -2 73 -5 87 -4 23 7 36 102 112 l107 87 43 -25 c83 -48 189
-23 244 57 24 34 29 51 29 104 0 53 -4 68 -30 105 -44 63 -115 93 -185 79z"/>
<path d="M1690 1417 l0 -193 58 -18 c64 -20 119 -49 176 -95 21 -17 43 -31 47
-31 5 0 9 119 9 265 l0 265 -145 0 -145 0 0 -193z"/>
<path d="M657 1454 c-4 -4 -7 -207 -7 -451 l0 -443 145 0 145 0 -2 448 -3 447
-136 3 c-74 1 -138 -1 -142 -4z"/>
<path d="M1170 1173 l0 -157 47 48 c54 56 128 105 196 131 l47 18 0 58 0 59
-145 0 -145 0 0 -157z"/>
<path d="M273 1222 l-133 -3 0 -329 0 -330 140 0 140 0 0 329 c0 182 -3 331
-7 333 -5 2 -68 2 -140 0z"/>
<path d="M1534 1170 c-274 -40 -456 -294 -400 -558 61 -292 371 -459 641 -345
197 83 322 302 287 505 -27 156 -131 297 -264 357 -49 23 -193 57 -210 50 -2
-1 -26 -5 -54 -9z m231 -105 c248 -119 306 -435 117 -637 -190 -204 -530 -145
-651 112 -34 73 -41 203 -15 286 36 116 137 217 253 256 86 28 217 21 296 -17z"/>
<path d="M1497 1035 c-48 -17 -51 -19 -39 -42 21 -41 -22 -61 -46 -22 -13 21
-14 21 -58 -22 l-45 -44 21 -17 c39 -32 16 -63 -32 -43 -19 8 -30 -12 -42 -77
-6 -35 -5 -37 21 -40 37 -4 39 -39 3 -48 -21 -5 -25 -12 -23 -37 2 -17 7 -43
12 -57 9 -22 14 -24 46 -19 30 5 35 3 35 -14 0 -12 -9 -27 -21 -35 -21 -13
-20 -14 21 -57 l42 -43 22 21 c12 12 27 21 33 21 15 0 23 -24 12 -41 -16 -26
-9 -35 36 -47 65 -17 73 -15 77 16 4 38 42 38 46 0 4 -31 12 -33 77 -16 44 12
45 13 39 45 -8 44 20 57 48 22 l18 -24 41 45 c40 44 41 45 20 59 -39 25 -19
70 22 49 24 -12 35 -4 47 40 16 58 13 70 -17 74 -40 4 -39 42 0 46 27 3 29 6
22 39 -12 64 -24 86 -43 78 -32 -13 -47 -10 -50 12 -2 14 3 23 17 28 12 3 21
10 21 14 0 4 -20 26 -44 50 -43 42 -44 43 -55 22 -7 -11 -21 -21 -33 -21 -18
0 -20 4 -15 35 6 39 -3 47 -76 60 -33 7 -36 5 -39 -22 -4 -39 -42 -40 -46 0
-4 31 -17 33 -75 12z m121 -212 l3 -92 62 -3 c54 -3 62 -5 62 -23 0 -18 -7
-20 -85 -20 l-85 0 -3 104 c-3 117 0 134 25 129 15 -3 18 -17 21 -95z"/>
<path d="M1266 102 c-2 -4 4 -8 14 -8 10 0 16 4 14 8 -3 4 -9 8 -14 8 -5 0
-11 -4 -14 -8z"/>
<path d="M1315 99 c-4 -6 -4 -13 -1 -16 3 -4 6 -1 6 6 0 8 6 11 16 7 8 -3 12
-2 9 4 -8 13 -22 13 -30 -1z"/>
<path d="M1475 99 c-4 -6 -4 -13 -1 -16 3 -4 6 -1 6 5 0 7 5 12 11 12 7 0 9
-9 6 -21 -4 -16 -3 -19 5 -11 12 12 4 42 -11 42 -5 0 -13 -5 -16 -11z"/>
<path d="M1585 100 c-3 -6 1 -7 9 -4 18 7 21 14 7 14 -6 0 -13 -4 -16 -10z"/>
<path d="M1634 99 c-5 -8 -3 -9 6 -4 7 4 16 2 22 -6 8 -12 9 -12 6 0 -6 20
-24 25 -34 10z"/>
<path d="M1693 103 c13 -3 16 -11 12 -26 -5 -17 -4 -19 4 -7 17 24 13 40 -11
39 -18 -1 -19 -2 -5 -6z"/>
<path d="M482 75 c0 -16 2 -22 5 -12 2 9 2 23 0 30 -3 6 -5 -1 -5 -18z"/>
<path d="M580 76 c0 -14 4 -27 8 -30 5 -3 6 8 4 25 -5 35 -12 38 -12 5z"/>
<path d="M770 70 c0 -16 4 -30 8 -30 5 0 7 13 4 30 -2 17 -6 30 -8 30 -2 0 -4
-13 -4 -30z"/>
<path d="M1370 79 c-7 -11 -10 -23 -7 -25 2 -2 9 7 15 21 14 30 7 33 -8 4z"/>
<path d="M534 65 c1 -22 28 -28 32 -7 1 7 0 8 -3 2 -7 -16 -21 -12 -26 8 -3
13 -4 12 -3 -3z"/>
<path d="M804 60 c2 -21 30 -19 32 3 1 12 1 13 -3 2 -5 -18 -20 -20 -26 -2 -2
7 -3 6 -3 -3z"/>
<path d="M853 66 c1 -11 9 -21 17 -23 10 -3 11 -2 4 4 -6 4 -14 15 -17 23 -5
11 -6 9 -4 -4z"/>
<path d="M900 70 c0 -5 5 -10 11 -10 5 0 7 5 4 10 -3 6 -8 10 -11 10 -2 0 -4
-4 -4 -10z"/>
<path d="M963 66 c1 -11 9 -21 17 -23 10 -3 11 -2 4 4 -6 4 -14 15 -17 23 -5
11 -6 9 -4 -4z"/>
<path d="M1040 68 c0 -9 -6 -19 -12 -21 -10 -4 -10 -6 0 -6 14 -1 28 26 18 36
-3 4 -6 -1 -6 -9z"/>
<path d="M1061 64 c0 -11 3 -14 6 -6 3 7 2 16 -1 19 -3 4 -6 -2 -5 -13z"/>
<path d="M1111 64 c0 -11 3 -14 6 -6 3 7 2 16 -1 19 -3 4 -6 -2 -5 -13z"/>
<path d="M1222 68 c-17 -17 -15 -28 6 -27 11 0 12 2 4 6 -10 4 -10 8 -1 19 14
17 8 19 -9 2z"/>
<path d="M1286 66 c6 -16 4 -18 -12 -12 -15 6 -17 5 -6 -5 9 -10 15 -10 24 -1
9 9 9 15 -1 25 -10 10 -11 8 -5 -7z"/>
<path d="M1330 60 c-6 -11 -8 -20 -6 -20 3 0 10 9 16 20 6 11 8 20 6 20 -3 0
-10 -9 -16 -20z"/>
<path d="M1414 69 c-3 -5 6 -9 20 -9 31 0 34 6 6 13 -11 3 -23 1 -26 -4z"/>
<path d="M1580 49 c0 -5 9 -9 20 -9 11 0 20 2 20 4 0 2 -9 6 -20 9 -11 3 -20
1 -20 -4z"/>
<path d="M658 43 c7 -3 16 -2 19 1 4 3 -2 6 -13 5 -11 0 -14 -3 -6 -6z"/>
<path d="M1538 43 c7 -3 16 -2 19 1 4 3 -2 6 -13 5 -11 0 -14 -3 -6 -6z"/>
<path d="M1638 43 c6 -2 18 -2 25 0 6 3 1 5 -13 5 -14 0 -19 -2 -12 -5z"/>
</g>
</svg>
