<?xml version="1.0" standalone="no"?>
<!DOCTYPE svg PUBLIC "-//W3C//DTD SVG 20010904//EN"
 "http://www.w3.org/TR/2001/REC-SVG-20010904/DTD/svg10.dtd">
<svg version="1.0" xmlns="http://www.w3.org/2000/svg"
 width="353.000000pt" height="143.000000pt" viewBox="0 0 353.000000 143.000000"
 preserveAspectRatio="xMidYMid meet">

<g transform="translate(0.000000,143.000000) scale(0.100000,-0.100000)"
fill="#000000" stroke="none">
<path d="M149 1354 c-19 -23 3 -41 33 -26 13 6 32 13 43 15 17 4 17 5 -3 6
-13 0 -32 5 -42 11 -13 7 -21 5 -31 -6z m31 -15 c0 -5 -7 -9 -15 -9 -15 0 -20
12 -9 23 8 8 24 -1 24 -14z"/>
<path d="M260 1360 c-17 -11 -5 -40 16 -40 10 0 27 -8 38 -17 21 -18 21 -18 4
3 -10 11 -18 28 -18 36 0 19 -22 29 -40 18z"/>
<path d="M579 1353 c-11 -15 -11 -16 1 -5 21 18 28 15 33 -15 5 -28 5 -28 3 1
-1 35 -18 43 -37 19z"/>
<path d="M712 1358 c-15 -15 -16 -48 -1 -48 5 0 7 5 4 10 -3 6 4 10 16 10 18
0 19 -2 9 -15 -7 -8 -10 -26 -8 -40 3 -13 0 -27 -6 -30 -6 -2 3 -2 20 1 22 3
37 0 48 -11 9 -9 16 -11 16 -5 0 6 -6 13 -13 16 -8 3 -12 16 -9 33 3 20 -2 33
-15 42 -11 8 -22 22 -26 32 -7 20 -18 22 -35 5z m66 -71 c2 -19 -1 -27 -13
-27 -19 0 -30 24 -21 46 9 23 31 11 34 -19z"/>
<path d="M1100 1350 c0 -10 -10 -25 -22 -31 -30 -15 -27 -12 -38 -48 l-9 -31
70 0 c63 0 69 2 69 21 0 12 -14 34 -31 50 -17 16 -26 29 -20 29 6 0 11 7 11
15 0 8 -7 15 -15 15 -8 0 -15 -9 -15 -20z m32 -42 c9 -7 18 -22 20 -33 3 -18
-3 -20 -49 -23 -47 -2 -53 0 -53 17 0 20 34 51 55 51 6 0 18 -6 27 -12z"/>
<path d="M1421 1344 c-31 -26 -33 -31 -29 -81 4 -44 12 -62 50 -110 24 -31 59
-67 76 -81 l31 -23 56 58 c96 99 119 174 71 229 -28 33 -84 38 -114 11 -16
-15 -20 -15 -33 -2 -8 8 -28 17 -45 21 -24 5 -37 0 -63 -22z m98 -10 c25 -21
32 -23 37 -11 9 24 56 39 87 28 34 -13 49 -43 45 -89 -3 -36 -4 -37 -50 -40
-44 -3 -48 -1 -64 30 l-18 33 -15 -37 c-18 -43 -27 -47 -36 -17 -6 18 -9 19
-23 6 -10 -8 -24 -17 -32 -20 -11 -4 -9 -6 6 -6 11 -1 25 4 31 10 8 8 13 5 18
-10 9 -29 20 -26 35 9 14 35 26 38 33 10 4 -16 14 -20 51 -20 25 0 46 -4 46
-9 0 -4 -28 -38 -61 -75 l-62 -67 -45 43 c-109 105 -136 217 -59 248 34 14 43
12 76 -16z"/>
<path d="M1938 1286 c-32 -47 -58 -87 -58 -90 0 -3 20 -6 45 -6 l44 0 3 -72 3
-72 52 76 c74 107 74 108 20 108 l-46 0 -3 70 -3 70 -57 -84z m92 -66 c22 0
40 -3 40 -7 0 -4 -19 -36 -42 -72 l-43 -65 -3 62 -3 62 -44 0 -44 0 47 69 47
68 3 -58 3 -59 39 0z"/>
<path d="M2270 1292 c0 -146 76 -216 159 -146 36 30 51 77 51 159 l0 60 -105
0 -105 0 0 -73z m198 -10 c-8 -111 -53 -168 -116 -146 -47 16 -72 67 -72 145
l0 69 96 0 97 0 -5 -68z"/>
<path d="M2306 1291 c-3 -4 8 -8 23 -7 16 1 27 4 24 9 -6 10 -41 9 -47 -2z"/>
<path d="M2390 1293 c0 -5 14 -8 31 -9 20 -1 26 2 17 7 -16 11 -48 12 -48 2z"/>
<path d="M2320 1206 c0 -16 37 -46 57 -46 15 0 53 36 53 50 0 6 -25 10 -55 10
-41 0 -55 -4 -55 -14z m100 -1 c0 -2 -11 -12 -24 -20 -19 -13 -29 -14 -45 -5
-34 18 -24 30 24 30 25 0 45 -2 45 -5z"/>
<path d="M2807 1364 c-4 -4 -4 -22 -1 -40 5 -28 -3 -48 -46 -125 -45 -78 -52
-96 -44 -118 9 -26 10 -26 114 -27 l105 -1 -99 6 c-113 7 -128 17 -107 69 9
21 18 29 29 25 14 -4 15 -3 2 6 -13 9 -13 11 0 15 8 3 29 7 45 9 l30 4 -32 2
c-18 0 -33 3 -33 5 0 3 9 21 21 41 24 41 41 105 28 105 -5 0 -9 5 -9 10 0 6
14 10 30 10 17 0 30 -4 30 -10 0 -5 -4 -10 -9 -10 -13 0 3 -74 22 -101 10 -13
17 -19 17 -13 0 5 -7 20 -16 32 -10 14 -14 38 -12 65 3 40 2 42 -27 45 -17 2
-34 0 -38 -4z"/>
<path d="M3228 1306 c-44 -35 -71 -62 -63 -64 11 -3 15 -26 17 -95 l3 -92 125
0 125 0 3 92 c2 72 6 92 18 95 9 2 -13 25 -58 59 -40 30 -77 58 -83 61 -5 3
-45 -22 -87 -56z m149 -1 l58 -44 -3 -101 -3 -100 -119 0 -119 0 -3 100 -3
101 55 44 c30 24 61 44 67 44 7 1 39 -19 70 -44z"/>
<path d="M3266 1229 c-51 -40 -21 -129 43 -129 66 0 97 88 45 129 -15 12 -34
21 -44 21 -10 0 -29 -9 -44 -21z m82 -5 c48 -33 17 -114 -44 -114 -55 0 -74
92 -24 117 33 16 41 16 68 -3z"/>
<path d="M3321 1184 c-8 -17 -17 -24 -27 -20 -10 4 -14 1 -12 -6 8 -24 27 -18
43 12 9 18 15 34 12 36 -2 2 -9 -8 -16 -22z"/>
<path d="M1908 1335 c-38 -21 -68 -75 -68 -124 0 -66 34 -118 93 -140 39 -15
33 -5 -9 15 -48 23 -74 67 -74 126 0 53 33 101 85 124 16 7 23 13 15 13 -8 0
-27 -6 -42 -14z"/>
<path d="M2052 1329 c37 -19 54 -41 69 -88 5 -17 8 -20 8 -8 2 42 -63 118
-101 117 -7 -1 4 -10 24 -21z"/>
<path d="M640 1325 c-7 -8 -10 -25 -6 -39 4 -16 1 -26 -9 -30 -8 -3 -15 -11
-15 -18 0 -10 2 -10 8 -1 13 21 58 26 76 8 9 -9 16 -11 16 -5 0 6 -6 13 -13
16 -9 3 -12 16 -9 35 6 43 -24 64 -48 34z m35 -25 c0 -27 -22 -39 -31 -16 -8
22 3 49 19 43 6 -2 12 -14 12 -27z"/>
<path d="M542 1318 c-7 -7 -12 -24 -12 -38 0 -14 -6 -32 -12 -39 -11 -11 -9
-11 10 -1 13 6 36 9 50 6 15 -3 22 -3 16 0 -6 2 -8 18 -6 35 6 41 -21 62 -46
37z m38 -37 c0 -6 -4 -13 -10 -16 -5 -3 -10 1 -10 9 0 9 5 16 10 16 6 0 10 -4
10 -9z"/>
<path d="M123 1309 c-6 -6 -22 -17 -35 -23 -28 -14 -30 -41 -3 -41 12 0 21 8
23 20 2 11 11 28 20 38 17 19 13 24 -5 6z"/>
<path d="M334 1275 c-4 -8 -2 -21 4 -28 6 -6 12 -23 15 -37 l4 -25 2 26 c0 14
6 30 13 37 8 8 8 15 -2 27 -16 19 -29 19 -36 0z m27 -18 c-13 -13 -26 -3 -16
12 3 6 11 8 17 5 6 -4 6 -10 -1 -17z"/>
<path d="M170 1260 c-11 -11 -20 -26 -20 -32 0 -7 6 -4 12 7 15 27 28 35 59
35 26 0 51 -21 62 -50 4 -12 6 -11 6 3 1 26 -35 57 -69 57 -17 0 -39 -9 -50
-20z"/>
<path d="M199 1224 c-7 -9 -13 -24 -14 -35 -1 -15 5 -19 35 -19 30 0 36 4 35
19 -1 21 -22 51 -35 51 -4 0 -13 -7 -21 -16z m31 -4 c0 -5 -4 -10 -10 -10 -5
0 -10 5 -10 10 0 6 5 10 10 10 6 0 10 -4 10 -10z"/>
<path d="M81 1210 c0 -15 -6 -31 -12 -37 -15 -15 -4 -43 16 -43 20 0 30 26 17
43 -6 6 -12 23 -15 37 l-4 25 -2 -25z m16 -66 c-9 -9 -28 6 -21 18 4 6 10 6
17 -1 6 -6 8 -13 4 -17z"/>
<path d="M1041 1218 c-1 -14 -11 -18 -48 -20 l-48 -1 55 -7 c30 -4 49 -7 43
-8 -7 -1 -13 -5 -13 -10 0 -9 136 -9 146 1 4 4 2 7 -4 7 -7 0 -12 3 -12 8 0 4
19 7 43 6 38 -1 38 -1 5 3 -24 3 -38 10 -41 21 -4 16 -5 15 -6 0 0 -10 -5 -18
-11 -18 -5 0 -10 8 -10 18 0 14 -2 15 -10 2 -8 -12 -11 -13 -19 -1 -7 11 -9
11 -14 0 -4 -12 -7 -11 -16 1 -9 13 -11 13 -11 -2 0 -10 -4 -18 -9 -18 -5 0
-12 8 -14 18 -4 16 -5 16 -6 0z m99 -38 c0 -3 -18 -6 -40 -5 -40 0 -40 0 -20
17 17 14 25 15 41 5 10 -6 19 -14 19 -17z"/>
<path d="M151 1194 c-1 -22 21 -46 54 -58 24 -9 13 3 -17 18 -12 6 -25 22 -29
36 -6 22 -7 22 -8 4z"/>
<path d="M506 1183 c11 -49 39 -87 80 -111 89 -52 210 3 230 106 l7 32 -162 0
-161 0 6 -27z m34 2 c0 -23 48 -95 64 -95 23 0 30 67 10 88 -17 16 -16 17 15
20 35 4 74 -28 92 -74 4 -13 13 -24 19 -24 10 0 46 79 42 93 -1 4 5 7 13 7 20
0 19 -13 -4 -59 -24 -46 -68 -78 -84 -62 -14 14 -54 14 -62 1 -12 -19 -46 -10
-80 23 -39 36 -64 97 -39 97 8 0 14 -7 14 -15z m145 -115 c3 -5 -3 -10 -14
-10 -12 0 -21 5 -21 10 0 6 6 10 14 10 8 0 18 -4 21 -10z"/>
<path d="M2121 1192 c-2 -37 -30 -81 -64 -102 -18 -11 -27 -20 -20 -20 37 0
100 88 90 127 -4 14 -5 13 -6 -5z"/>
<path d="M2896 1189 c-50 -39 -18 -124 45 -117 15 1 34 -3 43 -11 16 -14 46
-9 46 7 0 5 -7 15 -15 22 -9 8 -12 22 -8 40 4 22 -1 35 -20 54 -32 31 -56 33
-91 5z m83 -16 c46 -57 -27 -125 -81 -76 -24 21 -23 58 2 83 27 27 55 25 79
-7z"/>
<path d="M276 1182 c-4 -13 -17 -27 -29 -32 -15 -6 -17 -9 -6 -9 20 -1 52 34
47 51 -3 8 -8 4 -12 -10z"/>
<path d="M2820 1164 c-25 -14 -34 -22 -20 -18 25 7 70 33 70 40 0 5 1 6 -50
-22z"/>
<path d="M337 1173 c-4 -3 -7 -13 -7 -21 0 -9 -8 -25 -17 -36 -18 -21 -18 -21
3 -3 11 9 28 17 38 17 22 0 33 29 15 41 -17 11 -24 11 -32 2z"/>
<path d="M944 1169 c-3 -5 6 -9 20 -9 31 0 34 6 6 13 -11 3 -23 1 -26 -4z"/>
<path d="M1250 1121 c0 -38 -4 -61 -12 -64 -8 -3 -6 -6 5 -6 14 -1 17 8 17 64
0 36 -2 65 -5 65 -3 0 -5 -27 -5 -59z"/>
<path d="M1208 1163 c6 -2 18 -2 25 0 6 3 1 5 -13 5 -14 0 -19 -2 -12 -5z"/>
<path d="M1024 1120 c1 -24 4 -25 79 -28 l77 -3 -1 33 c-2 30 -2 31 -6 6 -2
-16 -8 -28 -13 -28 -5 0 -11 12 -13 28 l-4 27 -2 -27 c0 -16 -5 -28 -10 -28
-5 0 -12 12 -14 28 l-4 27 -2 -27 c0 -16 -5 -28 -10 -28 -5 0 -12 12 -14 28
l-4 27 -2 -27 c0 -16 -5 -28 -10 -28 -5 0 -12 12 -14 28 l-4 27 -2 -27 c-1
-34 -18 -37 -24 -5 -3 19 -4 19 -3 -3z"/>
<path d="M941 1124 c0 -11 3 -14 6 -6 3 7 2 16 -1 19 -3 4 -6 -2 -5 -13z"/>
<path d="M121 1115 c10 -11 19 -29 21 -40 2 -12 11 -20 23 -20 27 0 27 38 0
43 -11 2 -29 11 -40 21 -19 15 -19 15 -4 -4z"/>
<path d="M255 1090 c-3 -5 -18 -11 -33 -11 -20 -1 -22 -2 -7 -6 11 -2 30 -9
43 -15 27 -14 48 1 39 26 -7 18 -33 21 -42 6z m26 -23 c-13 -13 -26 -3 -16 12
3 6 11 8 17 5 6 -4 6 -10 -1 -17z"/>
<path d="M941 1078 c-1 -21 4 -28 17 -28 11 0 13 3 6 8 -7 4 -14 16 -17 27 -4
15 -5 14 -6 -7z"/>
<path d="M1058 1073 c29 -2 74 -2 100 0 26 2 2 3 -53 3 -55 0 -76 -1 -47 -3z"/>
<path d="M1048 1053 c34 -2 88 -2 120 0 31 2 3 3 -63 3 -66 0 -92 -1 -57 -3z"/>
<path d="M1135 920 c-3 -5 -3 -20 0 -31 5 -14 2 -25 -6 -30 -11 -7 -10 -9 4
-9 10 0 17 7 17 18 0 10 5 23 10 28 8 8 6 15 -4 23 -10 8 -16 9 -21 1z"/>
<path d="M1533 923 c-7 -3 -13 -9 -13 -15 0 -7 4 -7 13 1 10 8 17 7 25 -1 8
-8 12 -9 12 -1 0 13 -20 22 -37 16z"/>
<path d="M2339 918 c-12 -5 -19 -17 -19 -33 0 -14 -7 -28 -15 -31 -8 -4 -15
-16 -14 -28 0 -20 1 -19 12 4 10 21 12 11 14 -75 4 -126 8 -145 33 -145 11 0
20 5 20 10 0 6 24 10 54 10 30 0 58 -4 61 -10 11 -18 43 -10 49 13 9 35 7 260
-3 277 -7 10 -31 14 -91 15 -45 0 -90 -3 -101 -7z m185 -23 c4 -12 -4 -15 -40
-15 -28 0 -43 4 -39 10 4 6 -6 10 -22 10 -22 0 -25 -2 -13 -10 11 -7 2 -10
-32 -10 -36 0 -48 4 -48 15 0 12 17 15 94 15 74 0 95 -3 100 -15z m4 -97 l3
-68 -101 0 -100 0 0 70 0 71 98 -3 97 -3 3 -67z m-20 -89 c-24 -13 -23 -25 2
-32 11 -3 20 -12 20 -21 0 -14 -15 -16 -100 -16 -93 0 -100 1 -100 20 0 13 7
20 20 20 27 0 25 19 -2 29 -16 6 10 9 77 10 73 0 95 -2 83 -10z m19 -15 c-3
-3 -12 -4 -19 -1 -8 3 -5 6 6 6 11 1 17 -2 13 -5z"/>
<path d="M2390 675 c0 -11 11 -15 40 -15 29 0 40 4 40 15 0 11 -11 15 -40 15
-29 0 -40 -4 -40 -15z m58 -2 c-10 -2 -26 -2 -35 0 -10 3 -2 5 17 5 19 0 27
-2 18 -5z"/>
<path d="M134 895 c5 -19 -1 -37 -22 -68 -16 -23 -32 -53 -36 -67 -6 -22 -4
-21 10 5 44 81 58 95 94 95 28 0 39 -7 58 -33 12 -17 22 -27 22 -21 0 5 -6 19
-14 29 -12 17 -12 21 0 30 10 7 0 9 -37 6 -36 -2 -54 1 -60 10 -13 21 -11 27
14 32 18 4 17 5 -7 6 -25 1 -28 -1 -22 -24z"/>
<path d="M198 913 c6 -2 12 -12 12 -21 0 -14 2 -15 9 -2 12 18 5 30 -17 29
-11 0 -12 -3 -4 -6z"/>
<path d="M573 878 c-40 -23 -73 -45 -73 -49 0 -4 9 -10 19 -14 15 -5 21 -17
23 -52 4 -65 37 -88 124 -87 l64 1 -6 -34 c-6 -31 -4 -33 21 -33 26 0 26 1 21
50 -3 27 -1 52 4 55 6 4 10 24 10 46 0 28 6 42 20 51 11 7 20 16 20 20 0 10
-140 88 -158 88 -10 0 -50 -19 -89 -42z m163 -4 c35 -20 64 -38 64 -41 0 -3
-8 -11 -17 -18 -13 -9 -17 -24 -15 -53 2 -22 -1 -43 -7 -47 -7 -4 -11 8 -11
33 0 34 -4 41 -41 61 -22 13 -42 21 -45 19 -2 -3 14 -15 36 -27 36 -20 40 -26
40 -61 0 -35 -3 -39 -35 -50 -44 -15 -111 -4 -136 21 -16 16 -28 79 -15 79 2
0 24 -11 47 -25 49 -28 76 -31 102 -11 26 20 20 30 -8 12 -13 -9 -28 -16 -34
-16 -12 0 -141 73 -141 81 0 8 122 77 138 78 8 1 43 -15 78 -35z m19 -184 c3
-5 -1 -10 -10 -10 -9 0 -13 5 -10 10 3 6 8 10 10 10 2 0 7 -4 10 -10z m5 -60
c0 -13 -1 -13 -10 0 -8 12 -10 12 -10 1 0 -8 -3 -12 -6 -8 -3 3 -3 15 1 28 6
17 9 19 16 8 5 -8 9 -21 9 -29z"/>
<path d="M1068 908 c-3 -7 -16 -13 -31 -13 -33 -2 -66 -31 -60 -53 2 -10 -5
-28 -16 -41 -26 -30 -26 -42 -1 -71 12 -13 18 -30 15 -38 -9 -24 32 -60 60
-54 17 3 27 -1 31 -12 3 -9 15 -16 25 -16 15 0 19 7 19 34 0 30 -5 37 -37 53
-67 33 -65 112 5 142 27 12 32 20 32 48 0 26 -4 33 -19 33 -11 0 -21 -5 -23
-12z m32 -21 c0 -15 -11 -28 -35 -41 -37 -20 -61 -69 -49 -102 11 -30 46 -64
66 -64 13 0 18 -8 18 -30 0 -16 -4 -30 -10 -30 -5 0 -10 4 -10 9 0 12 -34 24
-78 29 -7 1 -12 10 -11 20 2 20 -10 52 -28 70 -13 13 -7 42 8 42 5 0 12 18 15
40 7 41 27 69 38 51 7 -10 56 9 56 22 0 4 5 7 10 7 6 0 10 -10 10 -23z"/>
<path d="M1485 909 c-11 -16 -1 -19 13 -3 7 8 8 14 3 14 -5 0 -13 -5 -16 -11z"/>
<path d="M1904 875 l-69 -45 149 0 c82 0 147 2 145 5 -17 16 -132 85 -143 85
-7 0 -44 -20 -82 -45z m146 0 l54 -35 -114 0 c-64 0 -110 4 -104 9 21 19 89
61 99 61 5 0 35 -16 65 -35z"/>
<path d="M2806 901 c-26 -18 -27 -20 -10 -30 17 -9 18 -10 2 -11 -10 0 -18 -7
-18 -16 0 -8 -4 -12 -10 -9 -5 3 -10 1 -10 -4 0 -17 21 -13 36 7 11 14 14 0
15 -98 0 -63 4 -104 8 -90 l7 24 17 -24 c16 -24 17 -21 17 88 0 105 1 112 20
112 19 0 19 1 3 19 -9 11 -21 17 -26 14 -5 -3 -3 -9 4 -14 11 -7 11 -9 -2 -9
-11 0 -16 8 -16 24 0 21 3 23 26 17 14 -4 25 -11 23 -15 -4 -10 24 -36 40 -36
10 0 9 3 -2 10 -8 5 -12 12 -8 15 3 4 16 -4 28 -17 21 -22 24 -67 9 -117 -2
-8 4 -17 14 -19 9 -2 17 1 17 7 0 6 -8 8 -17 4 -15 -5 -16 -3 -5 8 6 7 12 34
12 60 0 26 5 49 11 51 7 2 4 10 -7 18 -11 9 -15 10 -10 3 4 -7 2 -13 -3 -13
-6 0 -11 6 -11 13 0 8 -23 19 -52 27 -29 7 -57 14 -63 16 -5 2 -23 -5 -39 -15z
m24 -5 c0 -3 -4 -8 -10 -11 -5 -3 -10 -1 -10 4 0 6 5 11 10 11 6 0 10 -2 10
-4z m11 -66 c-9 -5 -10 -10 -2 -14 6 -4 11 -12 11 -19 0 -25 -25 15 -26 43 -1
26 0 28 14 14 12 -13 13 -17 3 -24z m9 -72 c0 -6 -7 -5 -15 2 -8 7 -15 17 -15
22 0 6 7 5 15 -2 8 -7 15 -17 15 -22z m0 -40 c0 -6 -7 -5 -15 2 -8 7 -15 17
-15 22 0 6 7 5 15 -2 8 -7 15 -17 15 -22z m0 -40 c0 -6 -7 -5 -15 2 -8 7 -15
17 -15 22 0 6 7 5 15 -2 8 -7 15 -17 15 -22z"/>
<path d="M3156 888 c4 -24 26 -52 80 -103 59 -56 73 -74 68 -91 -8 -29 13 -40
35 -20 18 16 21 15 53 -24 37 -42 64 -51 75 -24 4 11 -8 28 -38 54 -43 37 -43
38 -26 57 16 18 16 22 2 33 -11 9 -18 10 -29 1 -11 -9 -25 3 -71 56 -76 88
-83 93 -122 93 -31 0 -32 -1 -27 -32z m233 -154 c-11 -14 -7 -22 30 -56 29
-27 39 -44 33 -50 -12 -12 -89 58 -84 76 2 6 -7 1 -20 -11 -27 -26 -38 -29
-38 -11 0 17 83 93 88 79 2 -6 -2 -19 -9 -27z"/>
<path d="M3280 910 c-11 -8 -9 -9 10 -5 14 3 42 -1 62 -10 21 -8 45 -15 55
-15 18 1 -83 39 -102 40 -5 0 -17 -5 -25 -10z"/>
<path d="M1440 899 c0 -5 5 -7 10 -4 6 3 10 8 10 11 0 2 -4 4 -10 4 -5 0 -10
-5 -10 -11z"/>
<path d="M1550 880 c-9 -6 -10 -10 -3 -10 6 0 15 5 18 10 8 12 4 12 -15 0z"/>
<path d="M1483 873 c9 -2 25 -2 35 0 9 3 1 5 -18 5 -19 0 -27 -2 -17 -5z"/>
<path d="M2761 864 c0 -11 3 -14 6 -6 3 7 2 16 -1 19 -3 4 -6 -2 -5 -13z"/>
<path d="M3442 873 c12 -3 18 -18 21 -51 l3 -47 2 53 c2 48 0 52 -20 51 -17
-1 -18 -3 -6 -6z"/>
<path d="M1200 851 c0 -13 -9 -20 -30 -24 -16 -4 -30 -12 -30 -18 0 -8 4 -8
13 -1 6 5 26 13 44 16 42 10 56 46 16 46 -7 0 -13 -8 -13 -19z"/>
<path d="M1396 828 c-3 -13 -6 -67 -6 -120 l0 -98 155 0 155 0 0 80 c0 87 -7
96 -47 58 l-23 -21 0 21 c0 12 -5 22 -12 22 -6 0 -22 -10 -35 -22 l-23 -21 0
21 c0 31 -19 27 -57 -10 l-33 -32 -1 57 c-1 31 -2 63 -3 70 0 6 -15 13 -32 15
-26 3 -33 -1 -38 -20z m54 2 c0 -5 -10 -10 -22 -9 -22 0 -22 1 -3 9 11 5 21 9
23 9 1 1 2 -3 2 -9z m10 -29 c0 -6 -4 -12 -8 -15 -13 -8 -52 5 -46 15 7 12 54
12 54 0z m0 -107 l0 -74 -30 0 -30 0 0 73 c0 41 2 76 5 79 3 3 17 3 30 0 24
-4 25 -8 25 -78z m98 16 c3 0 19 12 34 27 l28 27 0 -27 c0 -15 3 -27 7 -27 4
0 20 12 35 27 l28 27 0 -72 0 -73 -107 3 -108 3 -3 29 c-3 22 5 37 35 68 l38
39 3 -25 c2 -14 6 -26 10 -26z"/>
<path d="M2552 830 c0 -14 2 -19 5 -12 2 6 2 18 0 25 -3 6 -5 1 -5 -13z"/>
<path d="M3151 814 c-2 -59 47 -140 110 -179 47 -30 60 -31 90 -5 l24 21 -33
-16 c-32 -16 -35 -15 -77 9 -54 32 -81 69 -99 137 -8 30 -15 45 -15 33z"/>
<path d="M1928 813 c6 -2 18 -2 25 0 6 3 1 5 -13 5 -14 0 -19 -2 -12 -5z"/>
<path d="M2028 813 c7 -3 16 -2 19 1 4 3 -2 6 -13 5 -11 0 -14 -3 -6 -6z"/>
<path d="M267 782 c-19 -20 -22 -49 -8 -71 5 -8 6 -23 2 -34 -4 -11 -6 -31 -3
-44 4 -21 9 -23 62 -23 l57 0 0 40 c0 28 -4 40 -14 40 -10 0 -11 5 -3 19 15
29 12 49 -10 71 -25 25 -62 26 -83 2z m79 -13 c17 -19 17 -23 3 -47 -18 -33
-44 -39 -70 -16 -23 21 -24 47 -3 68 21 22 47 20 70 -5z m2 -96 c-16 -2 -40
-2 -55 0 -16 2 -3 4 27 4 30 0 43 -2 28 -4z m12 -23 c0 -5 -20 -10 -45 -10
-25 0 -45 5 -45 10 0 6 20 10 45 10 25 0 45 -4 45 -10z m-12 -27 c-16 -2 -40
-2 -55 0 -16 2 -3 4 27 4 30 0 43 -2 28 -4z"/>
<path d="M1071 786 c-14 -16 1 -56 20 -56 6 0 3 7 -5 16 -21 20 -20 31 2 43 9
6 12 11 6 11 -6 0 -17 -6 -23 -14z"/>
<path d="M1898 720 c2 -52 0 -80 -7 -80 -7 0 -12 30 -13 78 l-2 77 -3 -75 c-3
-43 -9 -78 -16 -82 -7 -4 51 -8 128 -8 77 0 135 4 128 8 -7 4 -13 39 -16 82
l-3 75 -2 -77 c-1 -48 -6 -78 -13 -78 -7 0 -9 26 -7 75 2 41 0 75 -4 75 -5 0
-8 -34 -8 -75 0 -73 -1 -75 -25 -75 -24 0 -25 2 -25 75 0 42 -4 76 -10 77 -29
4 -35 1 -36 -17 0 -11 -1 -46 -2 -77 -2 -50 -5 -58 -21 -58 -25 0 -31 19 -31
96 0 35 -3 64 -7 64 -5 0 -7 -36 -5 -80z m102 -11 c0 -55 -3 -69 -15 -69 -17
0 -19 28 -9 103 10 68 24 47 24 -34z"/>
<path d="M2722 788 c-14 -14 -16 -146 -4 -166 7 -9 45 -12 158 -10 l149 3 3
74 c3 73 -4 91 -33 91 -5 -1 -2 -5 8 -11 14 -8 17 -24 17 -80 l0 -70 -147 3
c-138 3 -148 4 -148 22 0 25 19 31 38 12 14 -14 16 -9 19 53 2 57 0 71 -14 80
-23 14 -31 14 -46 -1z m46 -58 c3 -53 2 -55 -23 -55 -23 0 -25 3 -25 51 0 55
6 66 30 62 11 -2 16 -18 18 -58z"/>
<path d="M1170 770 l-55 -7 50 -2 c28 0 60 -4 73 -7 16 -5 22 -2 22 10 0 17
-1 17 -90 6z"/>
<path d="M2898 773 c12 -2 30 -2 40 0 9 3 -1 5 -23 4 -22 0 -30 -2 -17 -4z"/>
<path d="M3442 738 c-10 -30 -10 -31 3 -14 13 17 21 46 12 46 -1 0 -8 -15 -15
-32z"/>
<path d="M65 696 c6 -58 32 -79 105 -84 34 -3 65 -1 70 4 5 5 -12 8 -41 6 -83
-6 -112 14 -133 93 -3 11 -3 2 -1 -19z"/>
<path d="M1145 720 c3 -6 15 -10 26 -10 12 0 23 -10 29 -26 6 -14 15 -24 22
-22 24 8 18 27 -14 41 -51 23 -70 28 -63 17z"/>
<path d="M1129 681 c9 -6 11 -18 6 -41 -6 -26 -4 -31 10 -28 17 3 17 3 9 48
-4 19 -13 30 -23 30 -13 0 -13 -2 -2 -9z m26 -51 c3 -5 1 -10 -4 -10 -6 0 -11
5 -11 10 0 6 2 10 4 10 3 0 8 -4 11 -10z"/>
<path d="M1908 613 c46 -2 118 -2 160 0 42 1 5 3 -83 3 -88 0 -123 -2 -77 -3z"/>
<path d="M650 455 c-13 -24 -15 -25 -21 -8 -4 10 -8 -29 -8 -87 -1 -96 1 -106
20 -118 15 -10 19 -20 15 -38 -6 -23 -5 -24 51 -24 32 0 67 -2 78 -4 11 -2 14
-1 8 1 -19 7 -16 46 5 64 16 14 19 31 19 105 0 49 -2 79 -4 67 -6 -31 -19 -29
-28 5 l-7 27 -10 -27 c-12 -34 -25 -36 -31 -5 -2 12 -3 -20 -2 -72 1 -76 5
-95 18 -103 9 -5 17 -18 17 -28 0 -17 -7 -20 -50 -20 -43 0 -50 3 -50 20 0 11
9 29 20 40 21 21 17 52 -6 43 -8 -3 -14 0 -14 6 0 6 7 11 15 11 8 0 15 6 16
13 0 6 2 41 3 77 2 36 1 57 -1 48 -6 -26 -20 -22 -30 8 l-9 26 -14 -27z m16
-32 c-10 -10 -19 5 -10 18 6 11 8 11 12 0 2 -7 1 -15 -2 -18z m-10 -30 c-7 -7
-26 7 -26 19 0 6 6 6 15 -2 9 -7 13 -15 11 -17z m30 0 c-10 -10 -19 5 -10 18
6 11 8 11 12 0 2 -7 1 -15 -2 -18z m91 -5 c-3 -8 -6 -5 -6 6 -1 11 2 17 5 13
3 -3 4 -12 1 -19z m-124 -22 c4 -10 1 -13 -9 -9 -15 6 -19 23 -5 23 5 0 11 -7
14 -14z m37 4 c0 -5 -4 -10 -10 -10 -5 0 -10 5 -10 10 0 6 5 10 10 10 6 0 10
-4 10 -10z m78 -9 c3 -8 -1 -12 -9 -9 -7 2 -15 10 -17 17 -3 8 1 12 9 9 7 -2
15 -10 17 -17z m42 10 c0 -12 -20 -25 -27 -18 -7 7 6 27 18 27 5 0 9 -4 9 -9z
m-154 -48 c-7 -7 -26 7 -26 19 0 6 6 6 15 -2 9 -7 13 -15 11 -17z m30 0 c-10
-10 -19 5 -10 18 6 11 8 11 12 0 2 -7 1 -15 -2 -18z m84 7 c0 -5 -4 -10 -9
-10 -6 0 -13 5 -16 10 -3 6 1 10 9 10 9 0 16 -4 16 -10z m31 -4 c-9 -11 -9
-15 0 -18 7 -2 9 -10 5 -16 -13 -21 -25 -13 -22 16 4 34 4 32 17 32 8 0 8 -4
0 -14z m-146 -26 c3 -5 -1 -10 -9 -10 -9 0 -16 5 -16 10 0 6 4 10 9 10 6 0 13
-4 16 -10z m113 -8 c6 -18 -15 -14 -22 4 -4 10 -1 14 6 12 6 -2 14 -10 16 -16z
m-110 -31 c3 -8 -1 -12 -9 -9 -7 2 -15 10 -17 17 -3 8 1 12 9 9 7 -2 15 -10
17 -17z m24 -3 c-7 -7 -12 -8 -12 -2 0 14 12 26 19 19 2 -3 -1 -11 -7 -17z
m88 -4 c0 -14 -3 -14 -15 -4 -8 7 -15 14 -15 16 0 2 7 4 15 4 8 0 15 -7 15
-16z m40 12 c0 -2 -7 -9 -15 -16 -12 -10 -15 -10 -15 4 0 9 7 16 15 16 8 0 15
-2 15 -4z"/>
<path d="M1064 468 c-3 -4 -15 -8 -27 -9 -12 0 -16 -3 -9 -6 7 -3 20 -1 30 3
85 37 185 -35 184 -133 0 -45 -17 -80 -56 -116 -16 -15 -24 -27 -17 -27 6 0
14 7 17 15 3 8 13 17 22 20 40 12 58 122 30 175 -18 34 -55 70 -72 70 -8 0
-17 4 -20 9 -7 11 -75 10 -82 -1z"/>
<path d="M1390 472 c0 -20 24 -27 87 -22 l68 4 -70 6 -70 6 76 2 c47 1 79 -2
87 -10 9 -9 12 -8 12 5 0 15 -12 17 -95 17 -52 0 -95 -4 -95 -8z"/>
<path d="M2010 471 c-101 -31 -166 -110 -177 -215 -5 -53 10 -86 40 -86 6 0 1
7 -11 16 -16 11 -22 25 -22 52 l0 36 45 -44 c39 -38 43 -46 28 -52 -13 -5 -10
-7 12 -7 36 -1 111 32 143 62 59 55 92 188 57 227 -19 21 -67 25 -115 11z
m109 -15 c7 -8 11 -29 9 -46 l-3 -31 -45 45 -44 46 36 0 c19 0 41 -6 47 -14z
m-44 -40 c25 -25 45 -52 45 -61 0 -54 -70 -137 -136 -160 l-39 -14 -49 49 -50
49 12 40 c16 50 54 96 101 121 52 28 66 25 116 -24z"/>
<path d="M2025 377 c-6 -12 -14 -21 -19 -19 -5 2 -14 -7 -21 -20 -6 -13 -17
-22 -24 -20 -7 1 -10 -2 -7 -6 8 -13 -28 -44 -39 -35 -5 5 -4 1 3 -9 12 -15
15 -14 37 8 14 14 25 29 25 34 0 5 9 12 20 15 11 3 20 13 20 21 0 8 9 18 21
22 17 7 18 10 7 19 -11 9 -16 7 -23 -10z"/>
<path d="M2338 460 c-45 -24 -64 -70 -47 -118 6 -17 14 -31 17 -31 26 4 34 -2
22 -15 -8 -11 -18 -12 -36 -6 -21 8 -24 7 -24 -13 1 -31 18 -49 77 -80 53 -27
89 -35 78 -17 -3 6 -1 10 6 10 7 0 9 3 6 6 -4 4 -13 1 -21 -5 -11 -9 -20 -10
-35 -1 -26 14 -26 14 5 45 23 23 26 32 21 69 -4 24 -2 47 4 53 6 6 14 36 18
67 l8 56 -31 0 c-17 -1 -47 -10 -68 -20z m82 -25 c0 -47 -16 -78 -51 -99 -62
-37 -73 3 -21 74 24 33 24 34 2 15 -12 -11 -29 -33 -36 -50 -10 -24 -14 -27
-19 -13 -10 25 23 78 58 93 54 24 67 20 67 -20z m-20 -144 c0 -15 -7 -36 -15
-47 -17 -22 -19 -15 -5 20 12 33 5 34 -12 1 -13 -24 -14 -24 -26 -5 -11 18 -9
24 13 46 29 29 45 24 45 -15z m-82 -27 c12 -8 22 -20 22 -26 0 -6 -9 -3 -20 7
-20 18 -21 18 -15 -1 7 -19 6 -19 -9 0 -29 36 -17 47 22 20z"/>
<path d="M2745 455 c-32 -31 -32 -75 -1 -111 44 -52 126 -30 141 36 18 80 -82
134 -140 75z m51 -12 c-10 -10 -19 5 -10 18 6 11 8 11 12 0 2 -7 1 -15 -2 -18z
m34 6 c0 -5 -4 -9 -10 -9 -5 0 -10 7 -10 16 0 8 5 12 10 9 6 -3 10 -10 10 -16z
m25 1 c3 -5 1 -10 -4 -10 -6 0 -11 5 -11 10 0 6 2 10 4 10 3 0 8 -4 11 -10z
m-95 -35 c0 -8 -4 -15 -9 -15 -13 0 -22 16 -14 24 11 11 23 6 23 -9z m38 3
c-6 -18 -28 -21 -28 -4 0 9 7 16 16 16 9 0 14 -5 12 -12z m40 0 c-6 -18 -28
-21 -28 -4 0 9 7 16 16 16 9 0 14 -5 12 -12z m34 -3 c0 -5 -5 -11 -11 -13 -6
-2 -11 4 -11 13 0 9 5 15 11 13 6 -2 11 -8 11 -13z m-112 -41 c0 -9 -5 -14
-12 -12 -18 6 -21 28 -4 28 9 0 16 -7 16 -16z m40 1 c0 -8 -7 -15 -15 -15 -8
0 -15 7 -15 15 0 8 7 15 15 15 8 0 15 -7 15 -15z m38 3 c-6 -18 -28 -21 -28
-4 0 9 7 16 16 16 9 0 14 -5 12 -12z m36 -3 c-4 -8 -10 -15 -15 -15 -5 0 -9 7
-9 15 0 8 7 15 15 15 9 0 12 -6 9 -15z m-104 -35 c0 -5 -2 -10 -4 -10 -3 0 -8
5 -11 10 -3 6 -1 10 4 10 6 0 11 -4 11 -10z m30 0 c0 -5 -2 -10 -4 -10 -3 0
-8 5 -11 10 -3 6 -1 10 4 10 6 0 11 -4 11 -10z m30 6 c0 -3 -4 -8 -10 -11 -5
-3 -10 -1 -10 4 0 6 5 11 10 11 6 0 10 -2 10 -4z"/>
<path d="M3211 443 c1 -21 3 -30 6 -20 2 9 11 17 18 17 7 0 16 -8 19 -17 2
-10 4 -2 3 17 -2 28 -6 36 -24 38 -21 3 -23 -1 -22 -35z m34 17 c-3 -5 -10
-10 -16 -10 -5 0 -9 5 -9 10 0 6 7 10 16 10 8 0 12 -4 9 -10z"/>
<path d="M206 463 c-4 -5 -37 -10 -74 -13 -40 -3 -67 -10 -70 -17 -2 -9 8 -13
32 -13 33 0 38 -4 61 -50 14 -27 25 -52 25 -55 0 -3 -20 -5 -45 -5 -25 0 -45
2 -45 5 0 3 9 24 21 46 11 23 19 43 16 45 -2 2 -16 -23 -32 -56 -27 -57 -28
-60 -11 -79 18 -19 61 -37 50 -20 -3 5 -12 9 -19 9 -8 0 -19 9 -25 20 -10 19
-8 20 45 20 59 0 68 -10 33 -34 -12 -9 -17 -16 -11 -16 15 0 43 28 43 43 0 6
-12 35 -27 64 -14 29 -24 56 -20 59 7 7 126 8 133 2 2 -3 -7 -31 -21 -63 -30
-66 -26 -89 16 -104 33 -11 55 -4 79 24 11 14 9 25 -15 75 -16 33 -30 58 -32
56 -3 -2 5 -22 16 -45 12 -22 21 -43 21 -46 0 -3 -20 -5 -45 -5 -25 0 -45 2
-45 5 0 3 11 28 25 55 23 46 28 50 61 50 24 0 34 4 32 13 -3 7 -29 13 -69 15
-35 2 -68 7 -73 13 -12 11 -20 11 -30 2z m144 -183 c-17 -33 -100 -23 -100 12
0 4 25 8 55 8 53 0 55 -1 45 -20z"/>
<path d="M1551 444 c0 -11 3 -14 6 -6 3 7 2 16 -1 19 -3 4 -6 -2 -5 -13z"/>
<path d="M2483 435 c51 -18 57 -25 19 -25 -42 0 -60 -30 -29 -47 l22 -12 -21
-1 c-32 0 -48 -24 -34 -49 6 -12 15 -21 21 -21 5 0 15 -13 20 -30 6 -16 17
-30 23 -30 15 0 48 78 40 92 -3 5 4 12 16 15 56 15 -31 124 -97 123 -10 -1 -1
-7 20 -15z"/>
<path d="M536 416 c-8 -32 -23 -34 -29 -3 -2 12 -3 -17 -2 -65 1 -66 5 -92 18
-106 22 -24 22 -62 0 -62 -9 0 -14 -2 -12 -5 3 -2 34 0 69 4 63 8 63 9 18 10
-41 1 -48 4 -48 21 0 10 8 24 19 29 16 9 19 23 19 103 0 55 -3 83 -7 68 l-7
-25 -16 29 -15 29 -7 -27z m19 -15 c3 -5 1 -12 -5 -16 -5 -3 -10 1 -10 9 0 18
6 21 15 7z m-15 -42 c0 -5 -4 -9 -10 -9 -5 0 -10 7 -10 16 0 8 5 12 10 9 6 -3
10 -10 10 -16z m40 12 c0 -12 -20 -25 -27 -18 -7 7 6 27 18 27 5 0 9 -4 9 -9z
m-42 -61 c-1 -32 -12 -40 -22 -15 -3 8 0 15 6 15 7 0 6 5 -2 15 -10 12 -10 15
3 15 11 0 15 -9 15 -30z m42 21 c0 -5 -7 -11 -15 -15 -15 -5 -20 5 -8 17 9 10
23 9 23 -2z m0 -30 c0 -12 -20 -25 -27 -18 -7 7 6 27 18 27 5 0 9 -4 9 -9z
m-40 -47 c0 -14 -3 -14 -15 -4 -8 7 -15 14 -15 16 0 2 7 4 15 4 8 0 15 -7 15
-16z m30 1 c-7 -9 -15 -13 -17 -11 -7 7 7 26 19 26 6 0 6 -6 -2 -15z"/>
<path d="M980 418 c0 -6 -6 -19 -14 -27 -9 -11 -11 -22 -5 -36 9 -19 9 -19 5
2 -2 12 2 24 9 27 15 5 27 46 14 46 -5 0 -9 -5 -9 -12z"/>
<path d="M1462 418 c-7 -7 -12 -27 -12 -44 0 -18 -4 -36 -10 -39 -5 -3 -10
-14 -10 -24 0 -10 -9 -21 -20 -24 -11 -3 -20 -10 -20 -16 0 -7 27 -10 78 -9
l77 2 -70 6 -70 6 68 2 c77 2 86 16 42 64 -14 15 -25 33 -25 41 0 7 -5 18 -12
25 -9 9 -9 12 0 12 6 0 16 -8 21 -17 9 -16 10 -16 11 -2 0 9 -7 20 -16 23 -20
8 -18 8 -32 -6z m18 -28 c0 -5 -4 -10 -10 -10 -5 0 -10 5 -10 10 0 6 5 10 10
10 6 0 10 -4 10 -10z m0 -52 c0 -12 -3 -18 -7 -14 -11 10 -12 36 -2 36 5 0 9
-10 9 -22z"/>
<path d="M1076 385 c-5 -13 -63 -45 -108 -59 -21 -6 -24 -51 -5 -63 7 -4 26
-27 43 -50 39 -57 73 -58 43 -1 -6 11 -13 33 -14 47 -2 14 -6 37 -9 51 -5 21
0 29 28 47 l35 21 11 -26 c10 -26 10 -26 5 -2 -2 14 -5 31 -5 38 0 17 -17 15
-24 -3z m-70 -107 c-24 -16 -46 -8 -46 16 0 32 42 41 51 11 3 -11 1 -23 -5
-27z"/>
<path d="M979 301 c11 -7 11 -9 0 -14 -10 -4 -9 -6 4 -6 9 -1 17 6 17 14 0 8
-8 15 -17 15 -14 0 -15 -2 -4 -9z"/>
<path d="M3157 394 c-7 -8 -10 -214 -3 -214 2 0 13 -3 23 -6 17 -5 17 -5 1 6
-15 9 -18 27 -18 110 l0 100 70 0 70 0 0 -44 c0 -30 -5 -46 -15 -50 -22 -8
-21 -121 1 -130 9 -4 19 -4 22 -1 3 2 -3 7 -12 11 -12 5 -16 19 -16 60 l0 54
90 0 90 0 0 -55 c0 -55 -3 -60 -40 -56 -12 2 -13 0 -1 -7 7 -5 22 -7 33 -4 16
4 19 12 16 66 -3 61 -3 61 -35 64 -21 2 -33 9 -33 18 0 19 -44 18 -60 -1 -21
-25 -29 -17 -32 33 l-3 47 -70 3 c-39 1 -74 0 -78 -4z m233 -84 c0 -5 -12 -10
-26 -10 -14 0 -23 4 -19 10 3 6 15 10 26 10 10 0 19 -4 19 -10z"/>
<path d="M3180 360 c0 -12 37 -50 48 -50 16 0 52 32 52 46 0 10 -13 14 -50 14
-27 0 -50 -4 -50 -10z"/>
<path d="M1140 340 c-9 -6 -10 -10 -3 -10 6 0 15 5 18 10 8 12 4 12 -15 0z"/>
<path d="M2711 263 c2 -79 6 -70 11 25 2 28 0 52 -4 52 -5 0 -7 -35 -7 -77z"/>
<path d="M2880 336 c0 -2 11 -6 25 -8 14 -3 25 -1 25 3 0 5 -11 9 -25 9 -14 0
-25 -2 -25 -4z"/>
<path d="M1114 303 c3 -16 -1 -23 -12 -24 -13 0 -13 -2 3 -8 25 -10 29 -2 15
30 -10 23 -10 23 -6 2z"/>
<path d="M2567 269 c-20 -57 -70 -97 -94 -77 -8 6 -16 8 -20 4 -3 -3 -1 -6 6
-6 7 0 9 -4 6 -10 -3 -5 3 -10 14 -10 32 0 86 55 100 100 18 60 9 58 -12 -1z"/>
<path d="M2922 243 l2 -68 3 63 c4 67 16 77 48 42 18 -19 17 -20 -5 -20 -16 0
-20 4 -16 15 3 8 1 15 -4 15 -6 0 -10 -10 -10 -21 0 -18 5 -21 30 -17 37 6 55
-13 46 -48 -5 -17 -3 -23 4 -19 34 21 -28 125 -76 125 -23 0 -24 -2 -22 -67z"/>
<path d="M3307 264 c-14 -14 -7 -35 11 -32 9 2 17 10 17 17 0 16 -18 25 -28
15z m23 -14 c0 -5 -4 -10 -10 -10 -5 0 -10 5 -10 10 0 6 5 10 10 10 6 0 10 -4
10 -10z"/>
<path d="M3363 233 c-13 -2 -23 -11 -23 -19 0 -16 37 -19 59 -5 13 8 7 32 -7
30 -4 -1 -17 -4 -29 -6z"/>
<path d="M2745 200 c-4 -7 -3 -16 3 -22 14 -14 45 -2 40 15 -6 16 -34 21 -43
7z"/>
<path d="M2950 191 c0 -24 25 -34 40 -16 15 18 5 35 -21 35 -12 0 -19 -7 -19
-19z"/>
<path d="M140 178 c0 -9 23 -13 80 -13 57 0 80 4 80 13 0 8 -23 12 -80 12 -57
0 -80 -4 -80 -12z"/>
<path d="M1088 179 c-5 -3 4 -6 21 -7 17 0 33 2 35 6 5 9 -42 9 -56 1z"/>
<path d="M2828 183 c18 -2 45 -2 60 0 15 2 0 4 -33 4 -33 0 -45 -2 -27 -4z"/>
<path d="M3326 171 c3 -3 21 -6 40 -7 19 0 31 2 28 5 -3 3 -21 6 -40 7 -19 0
-31 -2 -28 -5z"/>
<path d="M1651 44 c0 -11 3 -14 6 -6 3 7 2 16 -1 19 -3 4 -6 -2 -5 -13z"/>
</g>
</svg>
