<?xml version="1.0" standalone="no"?>
<!DOCTYPE svg PUBLIC "-//W3C//DTD SVG 20010904//EN"
 "http://www.w3.org/TR/2001/REC-SVG-20010904/DTD/svg10.dtd">
<svg version="1.0" xmlns="http://www.w3.org/2000/svg"
 width="225.000000pt" height="225.000000pt" viewBox="0 0 225.000000 225.000000"
 preserveAspectRatio="xMidYMid meet">

<g transform="translate(0.000000,225.000000) scale(0.100000,-0.100000)"
fill="#000000" stroke="none">
<path d="M54 2231 c-44 -27 -60 -71 -45 -122 15 -51 51 -74 110 -72 44 2 49
-1 114 -65 37 -36 67 -70 67 -74 0 -4 -23 -36 -51 -70 -262 -323 -320 -781
-149 -1163 105 -235 330 -459 565 -565 236 -106 522 -126 767 -55 372 108 668
404 773 774 60 209 55 451 -11 654 -16 47 -15 50 9 105 82 183 45 392 -94 531
-293 294 -799 87 -799 -327 0 -43 7 -101 15 -128 8 -27 15 -50 15 -51 0 -2
-215 -3 -479 -3 -469 0 -479 0 -505 -21 l-26 -20 0 -545 c0 -600 -2 -580 62
-626 31 -22 43 -23 221 -26 l187 -4 0 -69 0 -69 -109 0 -109 0 -79 58 c-202
151 -333 348 -400 601 -35 132 -37 343 -5 474 38 154 109 309 184 400 l23 28
41 -22 c37 -21 45 -22 83 -11 52 16 76 51 76 114 0 45 3 51 64 112 62 63 64
64 115 62 49 -1 57 -5 124 -65 70 -62 71 -64 66 -105 -7 -56 21 -101 74 -116
76 -23 151 39 139 115 -5 29 1 39 67 104 62 62 76 71 98 66 56 -14 128 44 128
105 0 53 -57 110 -110 110 -61 0 -117 -65 -107 -125 5 -29 -1 -38 -66 -101
-68 -66 -74 -69 -118 -69 -43 1 -52 6 -119 67 -66 61 -71 68 -65 96 13 62 -42
132 -105 132 -61 0 -117 -65 -106 -124 6 -29 0 -38 -63 -100 -68 -68 -71 -69
-125 -71 l-55 -1 -67 67 c-61 61 -66 70 -61 99 10 47 -15 98 -57 115 -46 20
-65 19 -102 -4z m80 -67 c9 -8 16 -19 16 -23 0 -16 -38 -41 -53 -35 -22 8 -31
42 -17 59 16 19 35 19 54 -1z m580 0 c9 -8 16 -19 16 -24 0 -5 -7 -16 -16 -24
-8 -9 -19 -16 -24 -16 -5 0 -16 7 -24 16 -9 8 -16 19 -16 24 0 5 7 16 16 24 8
9 19 16 24 16 5 0 16 -7 24 -16z m580 0 c9 -8 16 -19 16 -24 0 -5 -7 -16 -16
-24 -8 -9 -19 -16 -24 -16 -11 0 -40 29 -40 40 0 5 7 16 16 24 8 9 19 16 24
16 5 0 16 -7 24 -16z m664 -30 c100 -49 186 -160 211 -272 7 -32 6 -45 -3 -48
-6 -2 -88 -3 -181 -2 l-170 3 -3 170 c-1 93 0 175 2 181 6 17 75 1 144 -32z
m-218 -359 l0 -395 -27 6 c-156 34 -271 135 -315 278 -49 161 13 344 150 438
54 37 126 67 165 68 l27 0 0 -395z m-1316 99 c9 -8 16 -19 16 -24 0 -11 -29
-40 -40 -40 -11 0 -40 29 -40 40 0 11 29 40 40 40 5 0 16 -7 24 -16z m580 0
c9 -8 16 -19 16 -24 0 -5 -7 -16 -16 -24 -8 -9 -19 -16 -24 -16 -5 0 -16 7
-24 16 -9 8 -16 19 -16 24 0 5 7 16 16 24 8 9 19 16 24 16 5 0 16 -7 24 -16z
m1162 -186 c-28 -119 -101 -210 -209 -262 -40 -20 -89 -38 -109 -42 l-38 -6 0
181 0 181 184 0 184 0 -12 -52z m-724 -231 c105 -106 199 -146 341 -147 l67 0
0 -295 0 -295 -725 0 -725 0 0 405 0 405 485 0 485 0 72 -73z m696 -44 c28
-99 36 -167 35 -298 0 -116 -5 -157 -26 -236 -66 -253 -197 -450 -400 -601
l-79 -58 -109 0 -109 0 0 69 0 69 188 4 c177 3 189 4 220 26 63 45 62 38 62
509 l0 429 60 28 c33 16 76 43 97 62 21 18 41 33 44 34 3 0 11 -17 17 -37z
m-288 -847 c0 -68 -4 -88 -19 -107 l-19 -24 -326 -3 -326 -3 0 -35 0 -34 110
0 110 0 0 -70 0 -70 -255 0 -255 0 0 70 0 70 110 0 110 0 0 34 0 35 -326 3
-326 3 -19 24 c-15 19 -19 39 -19 107 l0 84 725 0 725 0 0 -84z m-363 -427
c-36 -21 -207 -58 -298 -64 -56 -4 -129 -2 -179 5 -97 13 -238 48 -246 61 -3
5 153 9 368 9 262 -1 368 -4 355 -11z"/>
<path d="M1890 1925 c0 -33 2 -35 35 -35 33 0 35 2 35 35 0 33 -2 35 -35 35
-33 0 -35 -2 -35 -35z"/>
<path d="M2030 1925 c0 -33 2 -35 35 -35 33 0 35 2 35 35 0 33 -2 35 -35 35
-33 0 -35 -2 -35 -35z"/>
<path d="M1130 1160 l0 -290 -40 0 -40 0 0 220 0 220 -105 0 -105 0 0 -220 0
-220 -40 0 -40 0 0 145 0 145 -105 0 -105 0 0 -145 0 -145 -40 0 c-39 0 -40
-1 -40 -35 l0 -35 435 0 435 0 0 325 0 325 -105 0 -105 0 0 -290z m140 -35 l0
-255 -35 0 -35 0 0 255 0 255 35 0 35 0 0 -255z m-290 -75 l0 -180 -35 0 -35
0 0 180 0 180 35 0 35 0 0 -180z m-290 -70 l0 -110 -35 0 -35 0 0 110 0 110
35 0 35 0 0 -110z"/>
<path d="M1420 1195 c0 -33 2 -35 35 -35 33 0 35 2 35 35 0 33 -2 35 -35 35
-33 0 -35 -2 -35 -35z"/>
<path d="M1560 1195 l0 -35 110 0 110 0 0 35 0 35 -110 0 -110 0 0 -35z"/>
<path d="M1420 1055 c0 -33 2 -35 35 -35 33 0 35 2 35 35 0 33 -2 35 -35 35
-33 0 -35 -2 -35 -35z"/>
<path d="M1560 1055 l0 -35 110 0 110 0 0 35 0 35 -110 0 -110 0 0 -35z"/>
<path d="M1420 905 c0 -33 2 -35 35 -35 33 0 35 2 35 35 0 33 -2 35 -35 35
-33 0 -35 -2 -35 -35z"/>
<path d="M1560 905 l0 -35 110 0 110 0 0 35 0 35 -110 0 -110 0 0 -35z"/>
<path d="M1420 545 c0 -33 2 -35 35 -35 33 0 35 2 35 35 0 33 -2 35 -35 35
-33 0 -35 -2 -35 -35z"/>
<path d="M1560 545 c0 -33 2 -35 35 -35 33 0 35 2 35 35 0 33 -2 35 -35 35
-33 0 -35 -2 -35 -35z"/>
<path d="M1710 545 c0 -33 2 -35 35 -35 33 0 35 2 35 35 0 33 -2 35 -35 35
-33 0 -35 -2 -35 -35z"/>
</g>
</svg>
