<?xml version="1.0" standalone="no"?>
<!DOCTYPE svg PUBLIC "-//W3C//DTD SVG 20010904//EN"
 "http://www.w3.org/TR/2001/REC-SVG-20010904/DTD/svg10.dtd">
<svg version="1.0" xmlns="http://www.w3.org/2000/svg"
 width="290.000000pt" height="174.000000pt" viewBox="0 0 290.000000 174.000000"
 preserveAspectRatio="xMidYMid meet">

<g transform="translate(0.000000,174.000000) scale(0.100000,-0.100000)"
fill="#000000" stroke="none">
<path d="M370 1549 c-15 -6 -40 -34 -62 -69 -20 -33 -44 -60 -53 -60 -8 0 -15
-4 -15 -10 0 -6 63 -10 170 -10 107 0 170 4 170 10 0 6 -11 10 -24 10 -37 0
-56 10 -56 31 0 23 -17 24 -41 3 -40 -36 -67 16 -33 64 14 20 14 23 -3 29 -10
3 -20 7 -23 8 -3 1 -16 -2 -30 -6z"/>
<path d="M894 1550 c-56 -12 -114 -70 -114 -112 0 -10 -4 -18 -10 -18 -5 0
-10 -4 -10 -10 0 -6 63 -10 170 -10 107 0 170 4 170 10 0 6 -4 10 -10 10 -5 0
-10 7 -10 16 0 27 -33 74 -65 93 -37 23 -81 30 -121 21z m127 -59 c37 -37 51
-71 29 -71 -5 0 -10 7 -10 16 0 8 -13 29 -29 45 -25 25 -37 29 -81 29 -44 0
-56 -4 -81 -29 -16 -16 -29 -37 -29 -45 0 -9 -4 -16 -10 -16 -22 0 -8 34 29
71 35 35 44 39 91 39 47 0 56 -4 91 -39z m-26 -26 c23 -22 33 -45 20 -45 -3 0
-16 12 -29 27 -16 19 -32 26 -56 26 -24 0 -40 -7 -56 -26 -13 -15 -26 -27 -29
-27 -13 0 -3 23 20 45 18 19 35 25 65 25 30 0 47 -6 65 -25z m-34 -26 c21 -18
21 -20 4 -13 -11 4 -27 7 -35 7 -8 0 -24 -3 -35 -7 -17 -7 -17 -5 4 13 13 12
27 21 31 21 4 0 18 -9 31 -21z"/>
<path d="M1897 1532 c-23 -25 -21 -48 5 -66 17 -12 49 -16 130 -16 65 0 108 4
108 10 0 6 -43 10 -109 10 -86 0 -111 3 -121 16 -11 12 -10 18 4 32 16 16 18
16 36 -6 12 -14 21 -18 25 -12 9 15 -23 50 -45 50 -9 0 -24 -8 -33 -18z"/>
<path d="M1510 1510 c0 -19 3 -21 12 -12 9 9 9 15 0 24 -9 9 -12 7 -12 -12z"/>
<path d="M2430 1510 c-24 -24 -24 -29 -4 -58 14 -20 23 -22 125 -22 66 0 109
4 109 10 0 6 -41 10 -104 10 -81 0 -106 3 -116 16 -11 12 -10 18 4 32 16 16
18 16 36 -5 21 -27 30 -29 30 -9 0 14 -36 46 -52 46 -5 0 -17 -9 -28 -20z"/>
<path d="M1442 1489 c2 -7 10 -15 17 -17 8 -3 12 1 9 9 -2 7 -10 15 -17 17 -8
3 -12 -1 -9 -9z"/>
<path d="M1565 1489 c-4 -6 -5 -13 -2 -16 7 -7 27 6 27 18 0 12 -17 12 -25 -2z"/>
<path d="M1477 1455 c-8 -8 -34 -19 -58 -24 -73 -17 -139 -84 -139 -143 0 -37
15 -28 24 14 15 74 108 129 184 109 60 -17 89 -50 116 -135 10 -31 19 -10 12
28 -4 20 -17 48 -30 63 -13 15 -24 41 -24 57 1 44 -53 64 -85 31z"/>
<path d="M1804 1455 c-4 -8 -4 -22 0 -30 4 -12 33 -15 171 -15 113 0 164 3
160 10 -4 6 -14 10 -23 9 -10 -1 -79 -1 -154 0 -94 1 -138 5 -138 12 0 6 9 9
20 6 13 -3 20 0 20 9 0 19 -49 18 -56 -1z"/>
<path d="M2330 1445 c-6 -8 -10 -22 -8 -32 3 -16 19 -18 171 -21 109 -2 167 1
167 8 0 6 -57 10 -160 10 -88 0 -160 4 -160 8 0 17 13 22 27 11 10 -9 13 -8
13 4 0 8 -7 18 -16 21 -21 8 -20 8 -34 -9z"/>
<path d="M1588 1418 c9 -9 15 -9 24 0 9 9 7 12 -12 12 -19 0 -21 -3 -12 -12z"/>
<path d="M1393 1385 c-37 -16 -73 -68 -73 -104 0 -30 11 -20 25 22 12 36 66
77 104 77 34 0 89 -34 100 -62 5 -13 13 -32 17 -43 7 -19 8 -19 11 2 7 37 -25
83 -70 104 -50 22 -71 23 -114 4z"/>
<path d="M240 1370 c0 -6 63 -10 170 -10 107 0 170 4 170 10 0 6 -63 10 -170
10 -107 0 -170 -4 -170 -10z"/>
<path d="M795 1370 c-4 -6 43 -10 135 -10 92 0 139 4 135 10 -4 6 -60 10 -135
10 -75 0 -131 -4 -135 -10z"/>
<path d="M1812 1368 c-7 -7 -12 -21 -12 -33 0 -12 5 -26 12 -33 17 -17 65 -15
72 4 9 23 7 34 -4 34 -5 0 -10 -6 -10 -14 0 -8 -6 -16 -13 -19 -21 -8 -39 8
-35 29 2 15 14 20 57 22 35 2 57 -1 62 -9 6 -10 11 -10 24 1 14 12 18 12 26
-1 8 -12 10 -12 19 1 9 13 11 13 20 0 9 -13 11 -13 20 0 9 13 11 13 20 0 7
-12 12 -12 22 -2 6 6 20 12 30 12 10 0 18 5 18 10 0 15 -313 13 -328 -2z"/>
<path d="M1389 1332 c-23 -20 -30 -34 -27 -52 4 -24 5 -23 20 12 29 65 107 62
141 -5 l16 -32 0 27 c1 34 -49 78 -90 78 -17 0 -41 -11 -60 -28z"/>
<path d="M2372 1348 c-16 -16 -15 -53 2 -68 20 -15 56 -9 70 12 15 24 -1 36
-18 13 -16 -23 -46 -13 -46 15 0 19 6 20 140 20 87 0 140 4 140 10 0 15 -273
13 -288 -2z"/>
<path d="M240 1330 c0 -6 52 -10 135 -10 83 0 135 4 135 10 0 6 -52 10 -135
10 -83 0 -135 -4 -135 -10z"/>
<path d="M830 1330 c0 -6 40 -10 100 -10 60 0 100 4 100 10 0 6 -40 10 -100
10 -60 0 -100 -4 -100 -10z"/>
<path d="M1927 1324 c-4 -4 -7 -14 -7 -23 0 -11 3 -12 11 -4 6 6 10 16 7 23
-2 6 -7 8 -11 4z"/>
<path d="M1966 1314 c-9 -23 -2 -28 13 -10 7 8 8 17 3 20 -6 3 -13 -1 -16 -10z"/>
<path d="M2011 1316 c-8 -10 -9 -16 -1 -21 5 -3 13 1 16 10 9 22 -1 29 -15 11z"/>
<path d="M2057 1324 c-4 -4 -7 -14 -7 -23 0 -11 3 -12 11 -4 6 6 10 16 7 23
-2 6 -7 8 -11 4z"/>
<path d="M1410 1300 c-12 -12 -18 -25 -14 -31 4 -6 12 -2 21 10 8 12 23 21 33
21 10 0 25 -9 33 -21 8 -11 17 -16 21 -11 10 16 -24 52 -50 52 -13 0 -33 -9
-44 -20z"/>
<path d="M240 1290 c0 -6 42 -10 106 -10 67 0 103 4 99 10 -3 6 -50 10 -106
10 -59 0 -99 -4 -99 -10z"/>
<path d="M860 1290 c0 -6 30 -10 70 -10 40 0 70 4 70 10 0 6 -30 10 -70 10
-40 0 -70 -4 -70 -10z"/>
<path d="M1895 1269 c-4 -6 -5 -13 -2 -16 7 -7 27 6 27 18 0 12 -17 12 -25 -2z"/>
<path d="M1936 1264 c-4 -10 -1 -14 6 -12 15 5 23 28 10 28 -5 0 -13 -7 -16
-16z"/>
<path d="M1987 1273 c-10 -9 -9 -23 2 -23 5 0 11 7 15 15 5 15 -5 20 -17 8z"/>
<path d="M2025 1269 c-4 -6 -5 -13 -2 -16 7 -7 27 6 27 18 0 12 -17 12 -25 -2z"/>
<path d="M240 1250 c0 -6 30 -10 70 -10 40 0 70 4 70 10 0 6 -30 10 -70 10
-40 0 -70 -4 -70 -10z"/>
<path d="M895 1250 c-4 -6 10 -10 35 -10 25 0 39 4 35 10 -3 6 -19 10 -35 10
-16 0 -32 -4 -35 -10z"/>
<path d="M883 1040 c-12 -5 -30 -21 -39 -36 -17 -24 -17 -27 -1 -36 27 -15 20
-24 -16 -20 -44 5 -69 -19 -65 -62 5 -47 33 -56 176 -53 117 2 125 3 143 26
28 34 24 75 -8 101 -26 20 -28 20 -34 3 -5 -15 -9 -11 -22 19 -23 55 -80 80
-134 58z"/>
<path d="M1410 1043 c-23 -9 -60 -45 -60 -59 0 -6 7 -14 15 -18 27 -10 16 -22
-18 -18 -41 5 -67 -18 -67 -57 0 -31 12 -45 50 -56 14 -4 28 -13 33 -19 5 -8
10 -6 17 4 9 13 11 13 20 0 9 -13 11 -13 20 0 9 13 11 13 20 0 9 -13 11 -13
20 0 9 13 11 13 20 0 9 -13 11 -13 20 0 9 13 11 13 19 1 8 -12 12 -12 26 2 9
10 22 17 29 17 22 0 46 35 46 68 0 21 -8 37 -27 52 -26 20 -28 20 -34 3 -5
-15 -9 -12 -21 17 -8 19 -22 41 -31 48 -18 15 -75 24 -97 15z"/>
<path d="M1924 1040 c-21 -8 -54 -46 -54 -62 0 -3 9 -10 21 -13 29 -10 14 -20
-25 -17 -57 5 -86 -47 -52 -94 13 -17 27 -19 149 -19 119 0 137 2 156 19 31
28 28 79 -6 106 -26 20 -28 20 -34 3 -5 -15 -9 -11 -22 19 -23 55 -80 80 -133
58z"/>
<path d="M2444 1041 c-21 -9 -54 -48 -54 -63 0 -3 9 -10 21 -13 29 -10 14 -20
-25 -17 -57 5 -86 -47 -52 -94 13 -17 27 -19 149 -19 119 0 137 2 156 19 31
28 28 79 -6 106 -26 20 -28 20 -34 3 -5 -15 -9 -12 -21 17 -8 19 -22 41 -31
48 -20 17 -77 24 -103 13z"/>
<path d="M419 1015 c-14 -7 -31 -26 -37 -40 -11 -24 -11 -26 7 -20 25 8 80
-16 106 -45 27 -31 66 -45 77 -28 18 29 9 48 -22 48 -36 0 -68 30 -77 70 -6
33 -16 36 -54 15z"/>
<path d="M363 930 c-12 -5 -30 -21 -39 -36 -17 -25 -17 -27 -1 -39 25 -18 21
-21 -16 -17 -41 5 -67 -18 -67 -58 0 -52 30 -62 175 -58 119 3 128 4 146 27
27 33 24 67 -8 99 -24 23 -28 25 -31 10 -5 -28 -19 -21 -25 12 -4 19 -18 37
-39 50 -35 21 -60 24 -95 10z"/>
<path d="M838 794 c-9 -20 -9 -27 1 -33 10 -7 10 -13 2 -29 -6 -11 -7 -23 -3
-26 5 -3 16 11 25 30 14 29 15 36 3 40 -8 3 -12 13 -9 25 8 28 -5 23 -19 -7z"/>
<path d="M913 791 c-9 -24 -8 -31 4 -35 11 -4 11 -10 3 -26 -7 -13 -7 -20 -1
-20 6 0 18 14 26 30 13 26 14 31 1 36 -8 3 -12 13 -9 25 8 30 -11 22 -24 -10z"/>
<path d="M991 790 c-7 -21 -7 -30 1 -30 6 0 8 -10 4 -26 -5 -19 -3 -25 6 -22
19 6 36 60 22 65 -7 2 -10 13 -7 23 8 32 -14 23 -26 -10z"/>
<path d="M1900 791 c0 -22 -5 -31 -16 -31 -11 0 -14 6 -9 21 5 16 3 20 -6 17
-8 -3 -14 -16 -14 -29 0 -18 6 -25 24 -27 13 -2 28 2 32 10 12 18 11 55 -1 63
-6 4 -10 -7 -10 -24z"/>
<path d="M1950 776 c0 -31 -5 -48 -16 -54 -10 -6 -13 -12 -6 -16 19 -11 42 24
42 64 0 21 -4 42 -10 45 -6 4 -10 -11 -10 -39z"/>
<path d="M2002 775 c3 -47 5 -50 31 -53 16 -2 35 2 43 9 19 16 14 59 -8 73
-24 15 -36 -1 -13 -18 23 -16 13 -46 -15 -46 -15 0 -20 7 -20 28 0 15 -5 34
-10 42 -8 11 -10 1 -8 -35z"/>
<path d="M2399 817 c0 -1 -2 -12 -4 -23 -4 -17 0 -21 20 -21 19 0 24 4 21 20
-1 11 -10 21 -19 23 -10 1 -17 2 -18 1z"/>
<path d="M2470 794 c0 -17 6 -24 20 -24 13 0 20 7 20 19 0 10 -9 21 -20 24
-16 4 -20 0 -20 -19z"/>
<path d="M2546 812 c-7 -13 9 -37 26 -40 23 -4 20 35 -4 41 -10 3 -20 2 -22
-1z"/>
<path d="M1360 775 c0 -8 5 -15 10 -15 6 0 10 7 10 15 0 8 -4 15 -10 15 -5 0
-10 -7 -10 -15z"/>
<path d="M1400 775 c0 -8 5 -15 10 -15 6 0 10 7 10 15 0 8 -4 15 -10 15 -5 0
-10 -7 -10 -15z"/>
<path d="M1440 775 c0 -8 5 -15 10 -15 6 0 10 7 10 15 0 8 -4 15 -10 15 -5 0
-10 -7 -10 -15z"/>
<path d="M1480 775 c0 -8 5 -15 10 -15 6 0 10 7 10 15 0 8 -4 15 -10 15 -5 0
-10 -7 -10 -15z"/>
<path d="M1520 775 c0 -8 5 -15 10 -15 6 0 10 7 10 15 0 8 -4 15 -10 15 -5 0
-10 -7 -10 -15z"/>
<path d="M2433 730 c1 -18 14 -25 34 -17 4 1 8 10 8 20 1 11 -6 17 -21 17 -17
0 -22 -5 -21 -20z"/>
<path d="M2510 730 c0 -13 7 -20 20 -20 13 0 20 7 20 20 0 13 -7 20 -20 20
-13 0 -20 -7 -20 -20z"/>
<path d="M1360 725 c0 -8 5 -15 10 -15 6 0 10 7 10 15 0 8 -4 15 -10 15 -5 0
-10 -7 -10 -15z"/>
<path d="M1400 725 c0 -8 5 -15 10 -15 6 0 10 7 10 15 0 8 -4 15 -10 15 -5 0
-10 -7 -10 -15z"/>
<path d="M1440 725 c0 -8 5 -15 10 -15 6 0 10 7 10 15 0 8 -4 15 -10 15 -5 0
-10 -7 -10 -15z"/>
<path d="M1480 725 c0 -8 5 -15 10 -15 6 0 10 7 10 15 0 8 -4 15 -10 15 -5 0
-10 -7 -10 -15z"/>
<path d="M1520 725 c0 -8 5 -15 10 -15 6 0 10 7 10 15 0 8 -4 15 -10 15 -5 0
-10 -7 -10 -15z"/>
<path d="M1852 558 c-8 -8 -12 -46 -12 -102 -1 -64 -5 -97 -15 -110 -21 -27
-19 -59 6 -90 26 -33 79 -36 109 -6 24 24 26 78 5 106 -10 13 -14 45 -15 105
0 89 -8 109 -45 109 -12 0 -26 -5 -33 -12z m48 -78 c0 -30 4 -50 11 -50 8 0 8
-4 0 -13 -8 -10 -7 -17 1 -25 9 -9 9 -12 0 -12 -15 0 -16 -32 -1 -47 6 -6 9
-21 7 -34 -2 -18 -9 -24 -27 -24 -34 0 -50 29 -28 53 20 22 22 48 5 56 -10 5
-10 7 1 12 11 5 11 8 0 16 -11 7 -11 11 -1 15 7 3 12 24 12 54 0 27 5 49 10
49 6 0 10 -22 10 -50z"/>
<path d="M2042 558 c-8 -8 -12 -46 -12 -104 0 -69 -4 -95 -15 -104 -8 -7 -15
-27 -15 -44 0 -65 85 -101 130 -56 24 24 26 78 5 106 -10 13 -14 45 -15 105 0
89 -8 109 -45 109 -12 0 -26 -5 -33 -12z m56 -65 c-8 -10 -7 -13 3 -13 10 0
10 -3 1 -12 -15 -15 -16 -120 -1 -135 6 -6 9 -21 7 -34 -2 -18 -9 -24 -27 -24
-34 0 -50 29 -28 53 21 23 24 127 5 135 -10 4 -10 8 1 15 11 8 11 10 0 14 -11
4 -10 7 1 20 19 20 56 2 38 -19z"/>
<path d="M450 516 c0 -8 5 -18 10 -21 6 -3 10 3 10 14 0 12 -4 21 -10 21 -5 0
-10 -6 -10 -14z"/>
<path d="M925 520 l-20 -8 20 -8 c24 -9 125 -109 125 -123 0 -17 20 -23 35
-11 21 18 18 64 -5 85 -11 10 -20 13 -20 7 0 -22 -18 -12 -29 17 -18 42 -62
59 -106 41z"/>
<path d="M1440 505 c0 -14 5 -25 10 -25 6 0 10 11 10 25 0 14 -4 25 -10 25 -5
0 -10 -11 -10 -25z"/>
<path d="M2480 504 c0 -21 -4 -24 -20 -19 -11 4 -20 2 -20 -4 0 -6 9 -15 20
-21 11 -6 20 -18 20 -26 0 -11 -6 -13 -20 -9 -14 4 -20 2 -20 -9 0 -10 -6 -13
-16 -9 -11 4 -14 13 -10 29 7 26 -8 33 -18 9 -5 -13 -10 -14 -27 -5 -30 17
-38 2 -10 -19 16 -12 20 -21 12 -25 -20 -13 -12 -28 8 -16 29 15 44 12 37 -6
-4 -9 -1 -23 5 -30 15 -18 -17 -32 -34 -15 -6 6 -18 11 -26 11 -13 0 -13 -2 1
-16 15 -16 15 -18 -5 -36 l-22 -19 33 6 c25 5 32 3 32 -10 0 -9 4 -14 9 -11 5
3 7 15 4 25 -5 20 18 42 25 23 2 -7 12 -12 23 -12 26 0 24 -24 -3 -44 l-23
-17 23 5 c18 3 22 0 22 -20 0 -13 5 -24 10 -24 6 0 10 11 10 24 0 19 4 23 20
19 11 -3 20 -1 20 5 0 5 -9 12 -20 15 -26 7 -26 37 -1 37 11 0 21 5 23 12 7
20 28 -2 28 -30 1 -24 2 -25 14 -10 8 11 21 15 37 12 l24 -6 -22 20 c-20 18
-20 20 -5 36 14 14 14 16 1 16 -8 0 -20 -5 -25 -10 -16 -16 -47 -1 -34 15 6 7
8 20 4 29 -7 19 8 21 38 5 25 -14 39 -1 14 13 -18 10 -18 11 5 29 13 10 21 21
17 25 -4 4 -15 1 -23 -6 -13 -11 -18 -10 -30 6 -14 18 -14 18 -15 -8 0 -31
-17 -47 -26 -23 -4 10 -13 13 -25 10 -26 -9 -25 21 1 35 11 6 20 15 20 19 0 5
-9 7 -20 4 -16 -4 -20 0 -20 21 0 14 -4 26 -10 26 -5 0 -10 -12 -10 -26z m3
-116 c4 -10 7 -10 18 0 17 16 37 16 21 0 -17 -17 -15 -29 3 -22 8 4 15 1 15
-5 0 -6 -7 -11 -16 -11 -11 0 -14 -6 -8 -22 6 -20 5 -21 -10 -9 -13 11 -19 11
-32 0 -15 -12 -16 -11 -10 9 6 16 3 22 -8 22 -9 0 -16 5 -16 11 0 6 7 8 16 5
12 -4 14 -1 9 14 -7 21 10 28 18 8z"/>
<path d="M380 492 c0 -12 19 -26 26 -19 2 2 -2 10 -11 17 -9 8 -15 8 -15 2z"/>
<path d="M520 485 c-10 -12 -10 -15 4 -15 9 0 16 7 16 15 0 8 -2 15 -4 15 -2
0 -9 -7 -16 -15z"/>
<path d="M852 464 c-16 -16 -32 -36 -35 -44 -6 -12 -8 -12 -13 -2 -10 22 -44
-17 -44 -49 0 -48 81 -83 94 -41 8 23 57 52 89 52 14 0 39 -11 55 -25 26 -22
31 -23 36 -9 4 9 -1 28 -10 41 -13 20 -21 24 -45 19 -32 -6 -37 1 -13 18 14
11 14 14 -3 34 -10 12 -32 25 -50 28 -27 5 -37 1 -61 -22z"/>
<path d="M420 460 c-23 -23 -26 -40 -6 -40 7 0 30 -11 50 -25 44 -30 56 -26
56 20 0 57 -60 85 -100 45z"/>
<path d="M1330 472 c0 -5 7 -16 16 -23 14 -12 16 -11 13 5 -4 20 -29 35 -29
18z"/>
<path d="M1550 465 c-7 -9 -11 -18 -8 -20 3 -3 11 1 18 10 7 9 11 18 8 20 -3
3 -11 -1 -18 -10z"/>
<path d="M1404 450 c-57 -23 -73 -116 -30 -163 31 -33 66 -42 110 -27 42 13
68 51 68 96 0 78 -74 124 -148 94z"/>
<path d="M358 413 c7 -3 16 -2 19 1 4 3 -2 6 -13 5 -11 0 -14 -3 -6 -6z"/>
<path d="M540 410 c0 -5 6 -10 14 -10 8 0 18 5 21 10 3 6 -3 10 -14 10 -12 0
-21 -4 -21 -10z"/>
<path d="M370 393 c-23 -8 -60 -45 -60 -59 0 -6 7 -14 15 -18 27 -10 16 -22
-18 -18 -44 5 -69 -19 -65 -62 5 -47 33 -56 176 -53 117 2 125 3 143 26 28 34
24 75 -8 101 -26 20 -28 20 -34 3 -5 -15 -9 -11 -22 19 -22 51 -78 79 -127 61z"/>
<path d="M1280 360 c0 -5 12 -10 26 -10 14 0 23 4 19 10 -3 6 -15 10 -26 10
-10 0 -19 -4 -19 -10z"/>
<path d="M1575 360 c-4 -6 5 -10 19 -10 14 0 26 5 26 10 0 6 -9 10 -19 10 -11
0 -23 -4 -26 -10z"/>
<path d="M520 350 c0 -5 5 -10 11 -10 5 0 7 5 4 10 -3 6 -8 10 -11 10 -2 0 -4
-4 -4 -10z"/>
<path d="M883 334 c-23 -24 -24 -27 -10 -36 26 -14 20 -25 -12 -20 -21 3 -33
-2 -45 -19 -21 -30 -20 -35 4 -59 17 -17 33 -20 118 -20 112 0 142 13 142 60
0 30 -31 72 -38 51 -5 -16 -22 -13 -22 4 0 9 -11 27 -25 40 -33 34 -78 33
-112 -1z"/>
<path d="M1340 255 c-7 -9 -11 -18 -8 -20 3 -3 11 1 18 10 7 9 11 18 8 20 -3
3 -11 -1 -18 -10z"/>
<path d="M1540 262 c0 -5 7 -16 16 -23 14 -12 16 -11 13 5 -4 20 -29 35 -29
18z"/>
<path d="M1440 210 c0 -11 5 -20 10 -20 6 0 10 9 10 20 0 11 -4 20 -10 20 -5
0 -10 -9 -10 -20z"/>
</g>
</svg>
