<?xml version="1.0" standalone="no"?>
<!DOCTYPE svg PUBLIC "-//W3C//DTD SVG 20010904//EN"
 "http://www.w3.org/TR/2001/REC-SVG-20010904/DTD/svg10.dtd">
<svg version="1.0" xmlns="http://www.w3.org/2000/svg"
 width="1280.000000pt" height="720.000000pt" viewBox="0 0 1280.000000 720.000000"
 preserveAspectRatio="xMidYMid meet">

<g transform="translate(0.000000,720.000000) scale(0.100000,-0.100000)"
fill="#000000" stroke="none">
<path d="M4037 6466 c-212 -59 -255 -392 -67 -511 21 -13 67 -29 102 -36 54
-10 72 -9 119 4 123 36 181 113 187 249 5 102 -16 167 -74 224 -23 24 -59 50
-80 59 -53 22 -132 27 -187 11z m129 -87 c60 -49 83 -210 44 -312 -24 -64 -47
-82 -94 -73 -88 17 -137 166 -102 306 20 80 45 104 99 97 21 -3 45 -11 53 -18z"/>
<path d="M6182 6462 c-108 -39 -173 -137 -173 -263 0 -98 22 -158 80 -212 57
-54 105 -72 191 -71 74 1 121 18 172 63 59 51 82 111 82 211 0 99 -14 138 -71
200 -70 78 -182 107 -281 72z m136 -87 c44 -37 64 -96 65 -190 0 -82 -17 -140
-50 -177 -35 -39 -111 -11 -145 55 -26 51 -36 180 -18 246 23 87 89 116 148
66z"/>
<path d="M7029 6463 c-47 -12 -56 -18 -52 -33 3 -11 -32 -112 -78 -226 -74
-183 -88 -209 -116 -226 -62 -37 -44 -48 78 -48 109 0 110 0 107 23 -2 16 -11
23 -30 25 -32 4 -33 7 -13 56 l15 36 86 0 85 0 15 -35 c18 -44 19 -42 -16 -60
-16 -9 -30 -22 -30 -30 0 -13 23 -15 139 -15 134 0 140 1 138 20 -1 14 -11 23
-30 28 -32 8 -24 -8 -152 310 -43 105 -80 192 -84 191 -3 -1 -31 -8 -62 -16z
m33 -255 c19 -48 22 -68 14 -71 -16 -6 -106 4 -106 12 0 19 55 140 60 134 4
-4 19 -38 32 -75z"/>
<path d="M9302 6463 c-41 -12 -51 -19 -47 -33 3 -9 -25 -91 -61 -181 -37 -90
-75 -183 -84 -207 -22 -58 -66 -86 -112 -70 -59 20 -58 15 -58 224 l0 193 30
16 c17 9 30 22 30 30 0 12 -19 15 -103 15 l-102 0 -69 -185 c-38 -102 -70
-184 -72 -182 -2 1 -30 77 -63 167 -32 91 -62 173 -66 183 -6 15 -22 17 -127
17 -107 0 -119 -2 -116 -17 2 -10 18 -22 37 -27 l34 -10 -6 -140 c-4 -78 -7
-168 -7 -202 0 -59 -1 -61 -35 -77 -19 -9 -35 -23 -35 -32 0 -13 19 -15 120
-15 112 0 120 1 120 20 0 14 -9 21 -35 26 l-35 6 0 138 c0 76 -3 147 -7 157
-3 10 -3 15 1 12 4 -4 35 -85 70 -180 36 -95 69 -175 76 -177 18 -6 100 8 100
18 0 4 29 84 64 176 l63 167 -1 -148 -1 -149 -33 -19 c-17 -10 -32 -25 -32
-33 0 -11 44 -14 256 -14 l255 0 -3 23 c-2 16 -11 23 -30 25 -32 4 -33 10 -14
57 l15 35 85 0 86 0 15 -36 c19 -46 20 -41 -15 -59 -16 -9 -30 -22 -30 -30 0
-13 23 -15 135 -15 129 0 135 1 135 20 0 14 -8 22 -27 26 -26 5 -35 23 -128
255 -54 137 -104 249 -110 248 -5 0 -34 -8 -63 -16z m55 -307 c6 -27 4 -29
-18 -23 -13 4 -40 7 -61 7 l-36 0 18 48 c10 26 24 61 30 77 l12 30 25 -55 c13
-30 27 -68 30 -84z"/>
<path d="M4473 6463 c-44 -3 -53 -7 -53 -23 0 -12 10 -21 30 -25 l30 -7 0
-207 0 -206 -35 -19 c-61 -33 -39 -41 130 -44 191 -3 245 9 310 69 63 58 89
125 83 216 -6 90 -41 153 -111 200 -74 49 -169 61 -384 46z m290 -104 c71 -82
76 -238 10 -311 -26 -30 -80 -50 -114 -43 l-29 7 0 188 0 189 38 4 c20 2 42 4
49 5 6 1 27 -16 46 -39z"/>
<path d="M7453 6463 c-73 -3 -83 -6 -83 -23 0 -12 10 -21 30 -25 l30 -7 0
-209 0 -208 -30 -16 c-16 -9 -30 -22 -30 -30 0 -13 23 -15 140 -15 l139 0 -8
23 c-5 14 -18 23 -35 25 -26 3 -26 5 -26 78 l0 75 28 -3 c23 -3 34 -16 77
-100 l50 -98 93 0 c85 0 92 1 92 20 0 13 -9 22 -25 26 -24 6 -51 41 -110 140
l-18 31 41 38 c93 83 74 198 -42 257 -44 23 -144 29 -313 21z m250 -104 c40
-76 -5 -163 -82 -157 l-36 3 -3 92 -3 92 43 4 c60 5 61 5 81 -34z"/>
<path d="M5010 6441 c0 -13 9 -21 30 -26 l30 -7 0 -207 0 -207 -35 -17 c-19
-9 -35 -23 -35 -32 0 -13 30 -15 224 -15 l224 0 7 75 c3 41 4 79 0 85 -3 5
-23 10 -43 10 -36 0 -38 -2 -51 -45 l-13 -45 -69 0 -69 0 0 76 0 76 85 -3 85
-4 0 43 0 43 -85 -7 -85 -7 0 83 0 83 62 -7 c73 -9 78 -11 78 -36 0 -39 11
-50 50 -50 44 0 50 12 50 103 l0 57 -220 0 c-210 0 -220 -1 -220 -19z"/>
<path d="M5520 6441 c0 -13 9 -21 29 -26 18 -4 31 -14 35 -28 3 -12 6 -104 6
-205 l0 -183 -35 -20 c-19 -12 -35 -27 -35 -35 0 -12 39 -14 229 -14 199 0
230 2 235 16 3 9 6 54 6 100 l0 85 -42 -3 c-41 -3 -42 -4 -56 -54 -15 -57 -28
-64 -118 -64 l-44 0 0 193 0 192 35 19 c60 32 39 41 -108 44 -130 2 -137 2
-137 -17z"/>
<path d="M7950 6441 c0 -13 9 -21 30 -26 l30 -7 0 -207 0 -208 -35 -19 c-19
-10 -34 -23 -32 -29 2 -6 60 -11 145 -13 134 -2 142 -2 142 17 0 20 -18 31
-51 31 -18 0 -19 10 -19 210 l0 209 30 16 c17 9 30 22 30 30 0 13 -23 15 -135
15 -126 0 -135 -1 -135 -19z"/>
<path d="M3085 6440 c-10 -16 2 -28 35 -35 l30 -7 0 -112 c0 -62 -3 -153 -6
-203 -7 -90 -7 -90 -41 -108 -56 -30 -36 -40 90 -43 109 -2 117 -1 117 16 0
13 -11 22 -32 28 l-33 10 -1 147 -1 148 37 -98 c20 -54 49 -133 64 -175 30
-84 33 -86 103 -72 28 6 33 15 93 172 34 92 65 170 69 174 3 4 5 -59 3 -141
l-3 -148 -34 -16 c-19 -9 -35 -23 -35 -32 0 -13 22 -15 140 -15 130 0 140 1
140 19 0 12 -11 21 -32 27 l-33 10 -6 99 c-4 55 -7 145 -8 200 l-1 100 35 19
c19 11 35 25 35 33 0 11 -21 13 -107 11 l-107 -3 -67 -178 c-37 -98 -69 -180
-71 -182 -2 -2 -33 78 -69 178 l-65 182 -116 3 c-72 2 -119 -1 -123 -8z"/>
<path d="M4853 5697 c-119 -133 -127 -304 -23 -467 35 -54 47 -59 79 -32 l22
17 -25 58 c-55 124 -56 237 -1 355 14 30 25 56 25 58 0 2 -13 10 -29 18 -26
14 -30 14 -48 -7z"/>
<path d="M7559 5703 l-26 -16 31 -66 c28 -61 31 -74 31 -166 -1 -85 -5 -110
-28 -166 -33 -80 -33 -82 -2 -99 31 -17 50 -2 90 71 56 104 67 197 36 298 -16
53 -84 162 -101 161 -3 0 -17 -8 -31 -17z"/>
<path d="M5563 5679 c-21 -6 -33 -16 -33 -27 0 -10 -29 -89 -64 -176 -51 -128
-68 -162 -90 -173 -46 -24 -29 -33 64 -33 73 0 90 3 90 15 0 8 -12 18 -26 21
-22 6 -25 10 -19 33 9 35 7 34 77 39 51 4 64 2 75 -14 19 -26 16 -52 -7 -59
-11 -3 -20 -13 -20 -21 0 -11 21 -14 105 -14 86 0 105 3 105 15 0 8 -10 17
-22 20 -19 5 -36 40 -98 193 -48 119 -80 187 -90 189 -8 1 -30 -3 -47 -8z m46
-236 c1 -9 -14 -13 -43 -13 l-45 0 21 63 22 62 22 -50 c13 -27 23 -56 23 -62z"/>
<path d="M4975 5670 c-9 -15 4 -30 26 -30 18 0 19 -8 19 -163 l0 -164 -25 -11
c-51 -23 -26 -32 88 -32 63 0 117 3 120 7 13 12 -15 33 -44 33 -28 0 -29 2
-29 49 l0 48 60 6 c104 11 160 56 160 129 0 54 -24 94 -70 118 -33 17 -59 20
-169 20 -76 0 -132 -4 -136 -10z m253 -70 c17 -33 9 -100 -15 -118 -10 -7 -31
-12 -48 -10 -30 3 -30 3 -33 75 -3 72 -3 72 25 76 45 7 57 3 71 -23z"/>
<path d="M5835 5670 c-9 -15 4 -30 26 -30 18 0 19 -8 19 -159 0 -158 0 -159
-25 -175 -44 -29 -29 -36 81 -36 95 0 105 2 102 18 -2 9 -13 18 -26 20 -20 3
-22 9 -22 58 0 49 2 54 23 54 17 0 30 -16 62 -75 l40 -75 68 0 c55 0 67 3 67
16 0 9 -8 18 -18 21 -14 3 -92 111 -92 127 0 2 16 20 35 39 29 29 35 42 35 77
0 54 -28 93 -80 114 -46 18 -284 23 -295 6z m250 -70 c33 -64 5 -120 -60 -120
l-35 0 0 69 c0 76 -4 71 67 80 7 0 19 -12 28 -29z"/>
<path d="M6260 5641 c0 -21 3 -53 6 -70 5 -26 11 -31 34 -31 25 0 28 4 34 45
7 41 10 45 35 45 37 0 41 -14 41 -175 l0 -130 -30 -17 c-53 -30 -37 -38 85
-38 96 0 115 2 115 15 0 9 -12 18 -30 22 l-30 6 0 158 0 159 23 0 c32 0 47
-18 47 -57 0 -30 3 -33 29 -33 35 0 41 13 41 86 l0 54 -200 0 -200 0 0 -39z"/>
<path d="M6690 5660 c0 -13 7 -20 19 -20 27 0 32 -32 30 -172 -2 -143 -4 -152
-35 -167 -52 -23 -12 -31 157 -31 l169 0 0 65 0 65 -29 0 c-25 0 -31 -6 -41
-35 -11 -34 -13 -35 -61 -35 l-49 0 0 61 0 61 59 -7 c65 -7 75 -1 65 39 -6 25
-8 25 -65 19 l-59 -6 0 62 0 62 47 -3 c44 -3 47 -5 55 -35 7 -28 13 -33 37
-33 32 0 41 18 41 88 l0 42 -170 0 c-163 0 -170 -1 -170 -20z"/>
<path d="M7315 5638 c-38 -22 -72 -42 -73 -44 -2 -1 -1 -12 3 -24 5 -15 12
-19 23 -14 10 3 27 9 40 11 22 5 22 5 22 -119 l0 -125 -40 -13 c-22 -7 -40
-19 -40 -27 0 -10 28 -13 130 -13 108 0 130 3 130 15 0 8 -14 18 -32 23 l-33
8 -5 167 c-5 151 -7 168 -25 181 -11 9 -22 15 -25 16 -3 0 -36 -19 -75 -42z"/>
<path d="M8948 5093 c-4 -241 -12 -312 -29 -267 -7 17 -8 16 -8 -6 -1 -20 -3
-22 -11 -10 -8 13 -10 12 -10 -3 0 -10 -4 -16 -9 -12 -5 3 -13 0 -17 -6 -5 -8
2 -10 24 -7 17 2 29 1 27 -3 -3 -4 4 -9 15 -12 17 -4 20 -14 20 -66 l0 -61
105 0 105 0 0 64 0 63 75 13 c42 7 79 10 82 6 4 -4 24 -37 44 -74 l36 -67 127
-3 127 -3 -52 83 c-29 46 -63 99 -76 118 l-23 35 27 19 c95 67 155 164 161
261 3 51 1 63 -17 79 -14 12 -21 15 -21 6 0 -6 -6 -10 -12 -7 -10 3 -13 -16
-13 -77 -1 -70 -4 -86 -27 -121 -27 -43 -57 -73 -98 -98 -21 -13 -31 -14 -62
-4 -21 7 -38 14 -38 17 0 3 21 11 46 18 142 38 180 236 62 326 -54 40 -99 46
-335 46 l-221 0 -4 -247z m393 78 c26 -31 24 -57 -6 -86 -21 -22 -33 -25 -100
-25 l-75 0 0 71 0 71 81 -4 c70 -3 83 -6 100 -27z m-82 -285 l22 -23 -23 -7
c-13 -3 -40 -6 -60 -6 -36 0 -38 2 -38 30 0 28 2 30 38 30 28 0 45 -7 61 -24z"/>
<path d="M9653 5279 c-2 -23 3 -25 10 -4 4 8 3 16 -1 19 -4 3 -9 -4 -9 -15z"/>
<path d="M4817 4779 c-41 -31 -73 -102 -117 -263 -62 -224 -89 -303 -140 -413
-71 -150 -148 -253 -242 -320 l-45 -32 5 25 c5 29 -10 44 -43 43 -16 0 -14 -3
8 -11 27 -10 32 -23 21 -51 -3 -9 -14 -13 -27 -10 -17 4 -19 2 -8 -5 11 -8 8
-13 -17 -26 -67 -35 -190 -67 -274 -73 l-88 -6 0 411 0 411 35 3 c47 4 46 21
-2 30 -55 10 -143 -1 -143 -18 0 -9 12 -14 35 -14 l35 0 0 -409 0 -409 -22 -6
c-40 -10 -686 -7 -693 4 -3 6 -13 10 -21 10 -11 0 -14 -18 -14 -89 0 -93 9
-114 36 -87 13 14 59 16 342 16 180 0 337 -3 350 -6 l22 -6 0 -409 0 -409 -35
0 c-35 0 -50 -22 -22 -32 19 -7 164 -4 172 4 14 14 -7 28 -41 28 l-34 0 2 413
3 412 83 7 c45 4 119 16 164 27 69 18 113 21 274 21 l193 0 3 -37 c2 -26 8
-38 18 -38 10 0 16 12 18 38 l3 37 277 0 277 0 29 -142 c75 -374 158 -677 222
-818 53 -114 45 -110 200 -110 124 0 134 1 148 21 21 31 47 101 105 284 108
339 220 490 446 600 50 24 126 53 170 65 146 37 339 52 363 28 17 -17 20 -10
23 52 5 94 0 130 -16 130 -8 0 -15 -4 -15 -8 0 -5 -53 -12 -117 -15 -65 -4
-161 -16 -213 -27 -70 -14 -134 -20 -242 -20 l-148 0 0 36 c0 28 -3 35 -17 32
-12 -2 -19 -14 -21 -36 l-3 -32 -355 0 c-307 0 -354 2 -355 15 -1 8 -3 20 -4
25 -1 6 -3 15 -4 20 0 6 -8 10 -16 10 -10 0 -15 -11 -15 -35 0 -37 -15 -48
-24 -17 -3 9 -24 109 -46 222 -60 293 -114 533 -150 657 -39 141 -104 270
-149 300 -44 30 -106 30 -144 2z m122 -256 c48 -153 211 -868 211 -928 0 -13
-36 -15 -270 -15 l-270 0 -1 48 c0 26 -3 41 -6 35 -2 -7 -11 -13 -19 -13 -9 0
-14 -11 -14 -35 l0 -35 -147 0 -148 1 42 22 c118 63 254 204 335 348 64 114
110 234 159 408 58 206 79 272 89 266 4 -2 21 -49 39 -102z m388 -1005 c-3 -8
-6 -5 -6 6 -1 11 2 17 5 13 3 -3 4 -12 1 -19z m753 -5 c0 -16 4 -34 9 -42 14
-22 31 -3 31 35 l0 34 93 0 92 0 -42 -20 c-69 -31 -181 -107 -240 -162 -138
-131 -251 -347 -323 -619 -7 -24 -25 -77 -42 -116 -22 -54 -35 -73 -49 -73
-47 0 -121 226 -234 723 -31 137 -39 187 -29 187 14 0 29 54 19 70 -4 7 111
10 354 10 l361 0 0 -27z"/>
<path d="M4997 3803 c34 -7 47 -28 33 -53 -6 -12 -10 -24 -7 -26 2 -3 10 10
17 27 12 28 12 33 -5 45 -10 8 -28 13 -39 13 -20 -2 -20 -2 1 -6z"/>
<path d="M4590 3721 c0 -11 -8 -22 -17 -24 -14 -4 -12 -5 5 -6 17 -1 22 4 22
24 0 14 -2 25 -5 25 -3 0 -5 -9 -5 -19z"/>
<path d="M5047 3707 c5 -26 -11 -43 -47 -50 l-25 -4 25 -1 c14 -1 35 7 48 18
19 16 21 23 12 40 -14 26 -18 25 -13 -3z"/>
<path d="M8828 4793 c7 -3 16 -2 19 1 4 3 -2 6 -13 5 -11 0 -14 -3 -6 -6z"/>
<path d="M7915 4245 c-71 -19 -154 -35 -183 -35 -64 0 -87 -11 -107 -50 -35
-68 -9 -151 64 -204 43 -31 44 -31 165 -30 77 0 141 6 176 16 l55 15 12 -93
c8 -68 18 -103 34 -127 41 -58 63 -62 79 -13 39 120 161 113 148 -8 -3 -25
-21 -77 -41 -118 -36 -74 -41 -128 -12 -128 21 0 69 65 109 146 80 164 102
325 56 418 -34 71 -184 221 -235 235 -75 21 -181 13 -320 -24z"/>
<path d="M5907 3796 c-26 -24 -47 -51 -47 -61 0 -27 19 -55 38 -54 14 0 14 2
2 6 -19 8 -30 23 -30 45 0 18 9 29 60 72 18 15 31 29 28 31 -2 2 -25 -16 -51
-39z"/>
<path d="M7901 3821 c-10 -6 0 -8 27 -4 32 4 47 1 62 -12 11 -10 20 -13 20 -7
0 27 -78 43 -109 23z"/>
<path d="M7705 3809 c-17 -8 -16 -9 7 -4 15 3 39 0 55 -6 17 -6 24 -6 18 0
-16 15 -58 21 -80 10z"/>
<path d="M5950 3733 c0 -20 -7 -36 -17 -42 -10 -6 -12 -11 -6 -11 22 0 46 47
34 67 -9 15 -10 13 -11 -14z"/>
<path d="M5438 3713 c6 -2 18 -2 25 0 6 3 1 5 -13 5 -14 0 -19 -2 -12 -5z"/>
<path d="M7920 3700 c0 -5 5 -10 10 -10 6 0 10 5 10 10 0 6 -4 10 -10 10 -5 0
-10 -4 -10 -10z"/>
<path d="M7710 3691 c0 -6 5 -13 10 -16 6 -3 10 1 10 9 0 9 -4 16 -10 16 -5 0
-10 -4 -10 -9z"/>
<path d="M5453 3673 c9 -2 23 -2 30 0 6 3 -1 5 -18 5 -16 0 -22 -2 -12 -5z"/>
<path d="M7791 3644 c0 -11 3 -14 6 -6 3 7 2 16 -1 19 -3 4 -6 -2 -5 -13z"/>
<path d="M8095 3310 c-4 -11 -10 -18 -15 -15 -8 5 -62 -33 -68 -47 -2 -5 -7
-6 -11 -4 -4 3 -7 -4 -7 -14 0 -16 3 -16 25 6 13 13 27 22 30 18 3 -3 -9 -19
-27 -35 -18 -16 -28 -29 -22 -29 20 0 62 50 56 67 -4 10 -2 14 8 10 9 -4 22 7
35 29 11 19 16 34 11 34 -5 0 -12 -9 -15 -20z"/>
<path d="M4942 2263 c-24 -53 -23 -196 1 -241 19 -35 38 -47 61 -39 13 5 13
11 -2 39 -27 53 -29 175 -4 232 l21 46 -30 0 c-25 0 -33 -6 -47 -37z"/>
<path d="M5896 2268 c10 -19 19 -65 22 -109 4 -61 1 -84 -16 -122 -22 -49 -17
-63 18 -52 37 12 55 62 55 155 0 108 -22 160 -66 160 l-30 0 17 -32z"/>
<path d="M3643 2278 c-11 -15 -103 -230 -103 -240 0 -5 14 -8 30 -8 23 0 33 6
40 25 9 22 15 25 63 25 48 0 55 -3 65 -25 9 -20 19 -25 47 -25 31 0 34 2 27
18 -5 9 -31 68 -57 130 -44 105 -49 112 -75 112 -15 0 -32 -6 -37 -12z m36
-146 c-17 -2 -33 -2 -35 1 -2 2 3 21 12 43 l17 39 18 -40 18 -40 -30 -3z"/>
<path d="M3848 2284 c-5 -4 -8 -63 -8 -131 l0 -123 35 0 c33 0 35 2 35 35 0
31 3 35 25 35 19 0 29 -9 42 -35 15 -31 21 -35 55 -35 42 0 42 0 5 53 -19 28
-19 28 2 51 17 18 22 33 19 66 -4 61 -35 82 -130 88 -40 2 -76 1 -80 -4z m150
-83 c5 -30 -20 -51 -60 -51 -26 0 -28 3 -28 41 l0 40 43 -3 c36 -3 42 -6 45
-27z"/>
<path d="M4110 2160 l0 -130 30 0 30 0 0 130 0 130 -30 0 -30 0 0 -130z"/>
<path d="M4227 2283 c-4 -3 -7 -62 -7 -130 l0 -123 30 0 30 0 1 78 1 77 30
-62 c24 -50 34 -63 53 -63 18 0 28 13 51 63 l29 62 3 -77 c3 -75 4 -78 27 -78
l25 0 0 131 0 130 -32 -3 c-30 -3 -36 -10 -69 -78 l-36 -75 -36 78 c-33 70
-38 77 -65 77 -16 0 -32 -3 -35 -7z"/>
<path d="M4624 2253 c-9 -21 -32 -74 -51 -118 -19 -44 -37 -86 -40 -92 -4 -9
6 -13 31 -13 30 0 37 4 42 25 6 23 11 25 60 25 48 0 56 -3 66 -25 9 -19 19
-25 45 -25 18 0 33 3 32 8 0 4 -24 61 -52 127 -50 116 -53 120 -85 123 -29 3
-34 0 -48 -35z m60 -67 c3 -13 9 -31 12 -40 5 -13 -1 -16 -25 -16 -35 0 -36 1
-19 47 14 39 24 42 32 9z"/>
<path d="M5028 2283 c-2 -4 -3 -14 -2 -20 1 -7 2 -17 3 -23 0 -5 10 -10 21
-10 19 0 20 -7 20 -100 l0 -100 35 0 36 0 -3 128 -3 127 -52 3 c-28 2 -53 -1
-55 -5z"/>
<path d="M5344 2281 c-41 -18 -64 -60 -64 -118 0 -90 35 -133 110 -133 75 0
115 55 108 147 -4 40 -11 61 -29 78 -27 27 -92 40 -125 26z m74 -53 c12 -12
17 -104 6 -132 -4 -10 -18 -16 -35 -16 -33 0 -49 27 -49 83 0 59 46 97 78 65z"/>
<path d="M5682 2275 c-70 -31 -84 -162 -23 -217 40 -35 105 -39 144 -7 68 52
52 201 -24 228 -41 14 -57 13 -97 -4z m77 -44 c18 -12 26 -102 12 -130 -13
-23 -50 -28 -69 -9 -15 15 -16 102 -2 129 11 20 36 24 59 10z"/>
<path d="M5204 2082 c-6 -4 -11 -26 -11 -49 0 -48 18 -49 43 -1 12 23 13 33 3
44 -13 16 -19 17 -35 6z"/>
<path d="M5542 2078 c-10 -13 -10 -73 0 -84 9 -8 48 47 48 66 0 10 -7 21 -16
24 -21 8 -20 8 -32 -6z"/>
<path d="M9182 1980 c0 -14 2 -19 5 -12 2 6 2 18 0 25 -3 6 -5 1 -5 -13z"/>
<path d="M8880 1976 c0 -16 20 -25 58 -27 27 -1 27 -1 -3 -8 l-30 -7 28 -6
c15 -3 27 -1 27 3 0 5 19 9 43 9 23 0 37 4 30 8 -7 4 -9 13 -4 21 6 9 11 10
15 2 4 -6 24 -11 44 -11 l37 1 -43 15 c-41 14 -46 14 -82 -4 -23 -11 -44 -16
-52 -11 -7 5 -24 9 -38 10 -23 0 -23 1 -5 9 19 8 19 9 -2 9 -13 1 -23 -5 -23
-13z"/>
<path d="M8955 1980 c-3 -6 1 -7 9 -4 18 7 21 14 7 14 -6 0 -13 -4 -16 -10z"/>
<path d="M9098 1983 c7 -3 16 -2 19 1 4 3 -2 6 -13 5 -11 0 -14 -3 -6 -6z"/>
<path d="M9133 1970 c-4 -13 -14 -20 -30 -20 -13 0 -31 -6 -38 -14 -12 -12
-12 -15 1 -20 25 -10 56 -7 49 4 -3 6 -1 10 4 10 6 0 11 -6 11 -12 0 -7 5 -5
11 5 5 9 8 21 4 26 -3 5 -1 12 5 16 6 4 10 -4 10 -19 0 -14 5 -28 12 -32 8 -5
9 2 5 26 -4 18 -7 36 -7 41 0 18 -32 8 -37 -11z"/>
<path d="M7440 1969 c0 -5 9 -9 20 -9 11 0 20 2 20 4 0 2 -9 6 -20 9 -11 3
-20 1 -20 -4z"/>
<path d="M7470 1950 c-19 -6 -14 -8 22 -7 26 1 42 5 35 9 -14 9 -23 9 -57 -2z"/>
<path d="M7486 1931 c-18 -7 -18 -8 -3 -14 9 -3 24 -3 34 0 11 4 14 3 9 -5 -5
-8 3 -10 26 -6 26 5 30 3 18 -6 -12 -9 -10 -10 9 -5 13 4 21 3 18 -1 -3 -5 16
-8 41 -6 35 2 43 0 32 -7 -18 -13 -3 -13 25 -1 11 5 14 9 6 9 -8 1 -11 8 -9
19 4 15 1 18 -21 14 -23 -5 -24 -6 -6 -13 15 -6 11 -8 -18 -8 -26 -1 -36 3
-31 10 4 8 0 9 -15 4 -12 -3 -21 -2 -21 4 0 5 8 12 18 14 10 3 6 5 -10 6 -16
0 -28 -4 -28 -10 0 -6 -7 -8 -15 -5 -33 13 -41 14 -59 7z"/>
<path d="M8990 1920 c8 -5 24 -10 35 -10 17 0 17 2 5 10 -8 5 -24 10 -35 10
-17 0 -17 -2 -5 -10z"/>
<path d="M3508 1519 c-25 -14 -27 -164 -2 -173 9 -3 136 -6 283 -6 194 0 270
3 279 12 7 7 12 40 12 78 0 104 11 100 -296 100 -157 0 -266 -5 -276 -11z"/>
<path d="M3098 1253 c-20 -3 -28 -10 -28 -25 0 -16 4 -19 23 -14 39 12 52 11
52 -4 0 -8 -8 -16 -19 -18 -13 -3 -16 0 -11 10 3 7 -1 4 -10 -7 -10 -12 -14
-30 -11 -47 3 -16 0 -28 -7 -31 -16 -6 62 -1 90 6 13 3 26 1 29 -5 6 -10 415
-6 803 8 120 5 162 3 157 -5 -6 -8 461 -11 1788 -11 1409 0 1796 3 1797 13 1
6 1 16 0 20 -1 5 3 5 9 2 6 -4 9 -14 6 -22 -4 -9 -1 -13 6 -10 7 2 12 10 11
16 -2 6 -4 35 -5 63 -1 29 -7 56 -12 60 -6 4 -846 8 -1866 8 -1193 0 -1850 -4
-1840 -10 10 -6 -95 -9 -300 -8 l-315 3 290 5 c267 5 254 6 -160 6 -247 1
-462 -1 -477 -3z m265 -10 c-46 -2 -120 -2 -165 0 -46 1 -9 3 82 3 91 0 128
-2 83 -3z m4403 -4 c3 -6 1 -16 -6 -22 -10 -9 -12 -8 -7 5 6 17 -87 18 -1836
21 l-1842 2 1842 3 c1318 1 1844 -1 1849 -9z m-4656 -3 c0 -2 -7 -6 -15 -10
-8 -3 -15 -1 -15 4 0 6 7 10 15 10 8 0 15 -2 15 -4z m314 -16 c-12 -4 -67 -7
-123 -6 -79 2 -101 0 -101 -11 0 -17 -16 -17 -23 1 -9 22 7 24 143 25 79 0
117 -3 104 -9z m69 3 c-7 -2 -21 -2 -30 0 -10 3 -4 5 12 5 17 0 24 -2 18 -5z
m390 0 c-68 -2 -178 -2 -245 0 -68 1 -13 3 122 3 135 0 190 -2 123 -3z m151
-8 c3 -8 11 -15 17 -15 8 0 8 4 -1 15 -11 13 200 15 1811 15 1002 0 1819 -3
1815 -7 -4 -5 -798 -8 -1764 -8 -1253 -1 -1771 -4 -1807 -12 -69 -15 -94 -13
-92 9 2 22 13 23 21 3z m-527 -11 c-3 -3 -12 -4 -19 -1 -8 3 -5 6 6 6 11 1 17
-2 13 -5z m4199 -51 c-6 -14 -9 -15 -16 -4 -11 19 -1 46 13 32 5 -5 7 -18 3
-28z m-4566 -23 c12 -8 11 -10 -7 -10 -13 0 -23 5 -23 10 0 13 11 13 30 0z"/>
<path d="M9032 1251 c-31 -19 40 -22 453 -22 237 1 435 -2 442 -7 6 -4 -171
-7 -395 -7 -224 1 -410 -3 -413 -8 -3 -4 -24 -4 -47 2 -23 5 -44 6 -45 2 -5
-10 8 -67 14 -61 7 7 40 -26 33 -33 -3 -3 220 -6 495 -6 473 -1 501 0 501 16
0 20 -14 45 -24 44 -18 -3 -20 0 -6 9 12 7 10 11 -10 20 -22 9 -20 10 18 7 35
-2 42 1 42 15 0 10 -7 18 -16 18 -8 0 -12 5 -9 10 8 12 -1014 14 -1033 1z
m771 -8 c-138 -2 -368 -2 -510 0 -142 1 -28 2 252 2 281 0 397 -1 258 -2z
m234 -19 c-3 -3 -12 -4 -19 -1 -8 3 -5 6 6 6 11 1 17 -2 13 -5z"/>
<path d="M3073 1165 c0 -22 2 -30 4 -17 2 12 2 30 0 40 -3 9 -5 -1 -4 -23z"/>
</g>
</svg>
